<?xml version="1.0" encoding="utf-8"?>
<!-- Generator: Adobe Illustrator 18.0.0, SVG Export Plug-In . SVG Version: 6.00 Build 0)  -->
<!DOCTYPE svg PUBLIC "-//W3C//DTD SVG 1.1//EN" "http://www.w3.org/Graphics/SVG/1.1/DTD/svg11.dtd">
<svg version="1.1" id="Layer_1" xmlns="http://www.w3.org/2000/svg" xmlns:xlink="http://www.w3.org/1999/xlink" x="0px" y="0px"
	 viewBox="0 0 1440 1440" enable-background="new 0 0 1440 1440" xml:space="preserve">
<g>
	<g>
		<g>
			<defs>
				<rect id="SVGID_1_" x="74" width="1300.9" height="1027.7"/>
			</defs>
			<clipPath id="SVGID_2_">
				<use xlink:href="#SVGID_1_"  overflow="visible"/>
			</clipPath>
			
				<radialGradient id="SVGID_3_" cx="712.6271" cy="886.8871" r="650.4113" gradientTransform="matrix(1 0 0 1.3141 0 -271.1222)" gradientUnits="userSpaceOnUse">
				<stop  offset="0" style="stop-color:#B78CFF"/>
				<stop  offset="0.9085" style="stop-color:#B78CFF;stop-opacity:0"/>
			</radialGradient>
			<path opacity="0.4" clip-path="url(#SVGID_2_)" fill="url(#SVGID_3_)" d="M1363,894.3c0-472-291.2-854.7-650.4-854.7
				S62.2,422.3,62.2,894.3s291.2,854.7,650.4,854.7C1097.4,1749.1,1363,1366.4,1363,894.3z"/>
		</g>
		
			<linearGradient id="SVGID_4_" gradientUnits="userSpaceOnUse" x1="11442.8184" y1="-36.2074" x2="10963.0146" y2="823.348" gradientTransform="matrix(-1.2867 4.149168e-02 3.606967e-02 1.3169 15052.8037 -397.7073)">
			<stop  offset="0.14" style="stop-color:#FFFFFF;stop-opacity:0"/>
			<stop  offset="0.7951" style="stop-color:#FFF2BF"/>
		</linearGradient>
		<polygon opacity="0.2" fill="url(#SVGID_4_)" points="207.1,160.7 1079.7,1078.2 1114,1038 313.2,38.6 		"/>
		
			<linearGradient id="SVGID_5_" gradientUnits="userSpaceOnUse" x1="2490.7888" y1="648.2045" x2="2935.6643" y2="-48.6234" gradientTransform="matrix(1.4995 -9.686973e-02 9.574888e-02 1.5072 -3374.3708 406.6466)">
			<stop  offset="0.2049" style="stop-color:#FFF2BF"/>
			<stop  offset="0.9238" style="stop-color:#FFFFFF;stop-opacity:0"/>
		</linearGradient>
		<polygon opacity="0.2" fill="url(#SVGID_5_)" points="1140.2,166.1 334.8,1093.7 290.7,1051.7 1004.2,38.6 		"/>
		<line fill="none" stroke="#FFFFFF" stroke-linecap="round" stroke-miterlimit="10" x1="1203.5" y1="296.4" x2="1203.5" y2="311"/>
		
			<line fill="none" stroke="#FFFFFF" stroke-linecap="round" stroke-miterlimit="10" x1="1210.8" y1="303.7" x2="1196.2" y2="303.7"/>
		<line fill="none" stroke="#FFFFFF" stroke-linecap="round" stroke-miterlimit="10" x1="180.3" y1="277.1" x2="180.3" y2="291.7"/>
		<line fill="none" stroke="#FFFFFF" stroke-linecap="round" stroke-miterlimit="10" x1="187.6" y1="284.4" x2="173" y2="284.4"/>
		<line fill="none" stroke="#FFFFFF" stroke-linecap="round" stroke-miterlimit="10" x1="648.5" y1="98.5" x2="648.5" y2="113.1"/>
		<line fill="none" stroke="#FFFFFF" stroke-linecap="round" stroke-miterlimit="10" x1="655.8" y1="105.8" x2="641.2" y2="105.8"/>
		<circle opacity="0.5" fill="#FFFFFF" cx="1191.2" cy="502.5" r="5.2"/>
		<circle opacity="0.1" fill="#FFFFFF" cx="919.3" cy="507.7" r="5.2"/>
		<circle opacity="0.3" fill="#FFFFFF" cx="1244.8" cy="471" r="5.2"/>
		<circle opacity="0.5" fill="#FFFFFF" cx="1077.5" cy="315.3" r="5.2"/>
		<circle opacity="0.1" fill="#FFFFFF" cx="1177.1" cy="374.2" r="5.2"/>
		<circle opacity="0.1" fill="#FFFFFF" cx="164.4" cy="455.8" r="5.2"/>
		<circle opacity="0.1" fill="#FFFFFF" cx="754.9" cy="185.3" r="5.2"/>
		<circle opacity="0.2" fill="#FFFFFF" cx="509.3" cy="520.4" r="5.2"/>
		<circle opacity="0.2" fill="#FFFFFF" cx="121.1" cy="478.2" r="5.2"/>
		<circle opacity="0.5" fill="#FFFFFF" cx="253.5" cy="418.9" r="5.2"/>
		<circle opacity="0.5" fill="#FFFFFF" cx="550.5" cy="203.5" r="5.2"/>
		<circle opacity="0.3" fill="#FFFFFF" cx="305.9" cy="310.1" r="5.2"/>
		<circle opacity="0.3" fill="#FFFFFF" cx="580.8" cy="157.1" r="5.2"/>
		<circle opacity="0.2" fill="#FFFFFF" cx="238.7" cy="618.9" r="5.2"/>
		<circle opacity="0.5" fill="#FFFFFF" cx="953.9" cy="348" r="5.2"/>
		<circle opacity="0.3" fill="#FFFFFF" cx="1137.3" cy="398.3" r="5.2"/>
		<circle opacity="0.5" fill="#FFFFFF" cx="898.8" cy="459.4" r="5.2"/>
		<path fill="#C48EDD" d="M371.4,443.7c-1.4,0-2.7-0.9-3.1-2.4l-3.1-10.9c-0.5-1.7,0.5-3.5,2.2-4c1.7-0.5,3.5,0.5,4,2.2l3.1,10.9
			c0.5,1.7-0.5,3.5-2.2,4C372,443.7,371.7,443.7,371.4,443.7z"/>
		<path fill="#C48EDD" d="M350,444c-0.4,0-0.7-0.1-1.1-0.2c-1.7-0.6-2.5-2.5-1.9-4.2l3.9-10.6c0.6-1.7,2.5-2.5,4.2-1.9
			c1.7,0.6,2.5,2.5,1.9,4.2l-3.9,10.6C352.6,443.2,351.3,444,350,444z"/>
		<path fill="#C48EDD" d="M332.5,431.7c-1,0-2.1-0.5-2.7-1.4c-1-1.5-0.6-3.5,0.9-4.5l9.4-6.3c1.5-1,3.5-0.6,4.5,0.9
			c1,1.5,0.6,3.5-0.9,4.5l-9.4,6.3C333.8,431.5,333.2,431.7,332.5,431.7z"/>
		<path fill="#C48EDD" d="M337,411.8c0,0-0.1,0-0.1,0l-11.3-0.4c-1.8-0.1-3.2-1.6-3.1-3.4c0.1-1.8,1.6-3.2,3.4-3.1l11.3,0.4
			c1.8,0.1,3.2,1.6,3.1,3.4C340.1,410.5,338.7,411.8,337,411.8z"/>
		<path fill="#C48EDD" d="M340.9,398c-0.7,0-1.4-0.2-2-0.7l-8.9-7c-1.4-1.1-1.7-3.1-0.6-4.5c1.1-1.4,3.1-1.7,4.5-0.6l8.9,7
			c1.4,1.1,1.7,3.1,0.5,4.5C342.8,397.6,341.8,398,340.9,398z"/>
		<path fill="#C48EDD" d="M352.2,389.1c-1.4,0-2.7-0.9-3.1-2.4l-3.1-10.9c-0.5-1.7,0.5-3.5,2.2-4c1.7-0.5,3.5,0.5,4,2.2l3.1,10.9
			c0.5,1.7-0.5,3.5-2.2,4C352.8,389.1,352.5,389.1,352.2,389.1z"/>
		<path fill="#C48EDD" d="M366.6,388.5c-0.4,0-0.7-0.1-1.1-0.2c-1.7-0.6-2.5-2.5-1.9-4.2l3.9-10.6c0.6-1.7,2.5-2.5,4.2-1.9
			s2.5,2.5,1.9,4.2l-3.9,10.6C369.1,387.7,367.9,388.5,366.6,388.5z"/>
		<path fill="#C48EDD" d="M378.5,396.6c-1,0-2.1-0.5-2.7-1.4c-1-1.5-0.6-3.5,0.9-4.5l9.4-6.3c1.5-1,3.5-0.6,4.5,0.9
			c1,1.5,0.6,3.5-0.9,4.5l-9.4,6.3C379.8,396.4,379.2,396.6,378.5,396.6z"/>
		<path fill="#C48EDD" d="M394.8,410.5c0,0-0.1,0-0.1,0l-11.3-0.4c-1.8-0.1-3.2-1.6-3.1-3.4c0.1-1.8,1.6-3.2,3.4-3.1l11.3,0.4
			c1.8,0.1,3.2,1.6,3.1,3.4C398,409.1,396.6,410.5,394.8,410.5z"/>
		<path opacity="0.4" fill="#A166BC" d="M375.8,456c1.7-0.5,2.7-2.3,2.2-4l-0.1-0.5c-0.5-1.7-2.3-2.7-4-2.2c-1.7,0.5-2.7,2.3-2.2,4
			l0.1,0.5c0.4,1.4,1.7,2.4,3.1,2.4C375.2,456.2,375.5,456.1,375.8,456z"/>
		<path opacity="0.4" fill="#A166BC" d="M381,462.4c-0.5-1.7-2.3-2.7-4-2.2c-1.7,0.5-2.7,2.3-2.2,4l0.1,0.5c0.4,1.4,1.7,2.4,3.1,2.4
			c0.3,0,0.6,0,0.9-0.1c1.7-0.5,2.7-2.3,2.2-4L381,462.4z"/>
		<path opacity="0.4" fill="#A166BC" d="M346.8,449.4c-1.7-0.6-3.5,0.2-4.2,1.9l-0.2,0.5c-0.6,1.7,0.3,3.5,1.9,4.2
			c0.4,0.1,0.7,0.2,1.1,0.2c1.3,0,2.6-0.8,3-2.1l0.2-0.5C349.4,451.8,348.5,450,346.8,449.4z"/>
		<path opacity="0.4" fill="#A166BC" d="M343,460c-1.7-0.6-3.5,0.2-4.2,1.9l-0.2,0.5c-0.6,1.7,0.2,3.5,1.9,4.2
			c0.4,0.1,0.7,0.2,1.1,0.2c1.3,0,2.6-0.8,3-2.1l0.2-0.5C345.5,462.5,344.6,460.6,343,460z"/>
		<path opacity="0.4" fill="#A166BC" d="M320.4,432.7L320,433c-1.5,1-1.9,3-0.9,4.5c0.6,0.9,1.6,1.4,2.7,1.4c0.6,0,1.2-0.2,1.8-0.6
			l0.4-0.3c1.5-1,1.9-3,0.9-4.5C323.9,432.1,321.9,431.7,320.4,432.7z"/>
		<path opacity="0.4" fill="#A166BC" d="M311,439l-0.4,0.3c-1.5,1-1.9,3-0.9,4.5c0.6,0.9,1.6,1.4,2.7,1.4c0.6,0,1.2-0.2,1.8-0.5
			l0.4-0.3c1.5-1,1.9-3,0.9-4.5C314.5,438.4,312.5,438,311,439z"/>
		<path opacity="0.4" fill="#A166BC" d="M302,404.1l-0.5,0c-1.8-0.1-3.3,1.3-3.4,3.1s1.3,3.3,3.1,3.4l0.5,0c0,0,0.1,0,0.1,0
			c1.7,0,3.2-1.4,3.2-3.1C305.2,405.6,303.8,404.1,302,404.1z"/>
		<path opacity="0.4" fill="#A166BC" d="M313.4,404.5l-0.5,0c-1.8-0.1-3.3,1.3-3.4,3.1c-0.1,1.8,1.3,3.3,3.1,3.4l0.5,0
			c0,0,0.1,0,0.1,0c1.7,0,3.2-1.4,3.2-3.1C316.5,406.1,315.1,404.6,313.4,404.5z"/>
		<path opacity="0.4" fill="#A166BC" d="M315.3,370.6l-0.4-0.3c-1.4-1.1-3.4-0.9-4.5,0.6c-1.1,1.4-0.9,3.4,0.6,4.5l0.4,0.3
			c0.6,0.5,1.3,0.7,2,0.7c1,0,1.9-0.4,2.5-1.2C316.9,373.7,316.7,371.7,315.3,370.6z"/>
		<path opacity="0.4" fill="#A166BC" d="M319.8,382.3l0.4,0.3c0.6,0.5,1.3,0.7,2,0.7c1,0,1.9-0.4,2.5-1.2c1.1-1.4,0.9-3.4-0.6-4.5
			l-0.4-0.3c-1.4-1.1-3.4-0.9-4.5,0.6C318.1,379.2,318.4,381.2,319.8,382.3z"/>
		<path opacity="0.4" fill="#A166BC" d="M344.7,359.4c-1.7,0.5-2.7,2.3-2.2,4l0.1,0.5c0.4,1.4,1.7,2.4,3.1,2.4c0.3,0,0.6,0,0.9-0.1
			c1.7-0.5,2.7-2.3,2.2-4l-0.1-0.5C348.2,359.9,346.4,358.9,344.7,359.4z"/>
		<path opacity="0.4" fill="#A166BC" d="M339.5,353c0.4,1.4,1.7,2.4,3.1,2.4c0.3,0,0.6,0,0.9-0.1c1.7-0.5,2.7-2.3,2.2-4l-0.1-0.5
			c-0.5-1.7-2.3-2.7-4-2.2c-1.7,0.5-2.7,2.3-2.2,4L339.5,353z"/>
		<path opacity="0.4" fill="#A166BC" d="M373.6,366.1c0.4,0.1,0.7,0.2,1.1,0.2c1.3,0,2.6-0.8,3-2.1l0.2-0.5c0.6-1.7-0.2-3.5-1.9-4.2
			c-1.7-0.6-3.5,0.3-4.2,1.9l-0.2,0.5C371.1,363.6,371.9,365.4,373.6,366.1z"/>
		<path opacity="0.4" fill="#A166BC" d="M379.9,348.8c-1.7-0.6-3.5,0.2-4.2,1.9l-0.2,0.5c-0.6,1.7,0.2,3.5,1.9,4.2
			c0.4,0.1,0.7,0.2,1.1,0.2c1.3,0,2.6-0.8,3-2.1l0.2-0.5C382.5,351.3,381.6,349.4,379.9,348.8z"/>
		<path opacity="0.4" fill="#A166BC" d="M406.3,370.8l-0.4,0.3c-1.5,1-1.9,3-0.9,4.5c0.6,0.9,1.7,1.4,2.7,1.4c0.6,0,1.2-0.2,1.8-0.6
			l0.4-0.3c1.5-1,1.9-3,0.9-4.5C409.8,370.2,407.8,369.8,406.3,370.8z"/>
		<path opacity="0.4" fill="#A166BC" d="M396.9,377.1l-0.4,0.3c-1.5,1-1.9,3-0.9,4.5c0.6,0.9,1.6,1.4,2.7,1.4c0.6,0,1.2-0.2,1.8-0.6
			l0.4-0.3c1.5-1,1.9-3,0.9-4.5C400.4,376.5,398.4,376.1,396.9,377.1z"/>
		<path opacity="0.4" fill="#A166BC" d="M419.2,404.9l-0.5,0c-1.8-0.1-3.3,1.3-3.4,3.1c-0.1,1.8,1.3,3.3,3.1,3.4l0.5,0
			c0,0,0.1,0,0.1,0c1.7,0,3.2-1.4,3.2-3.1C422.4,406.5,421,405,419.2,404.9z"/>
		<path opacity="0.4" fill="#A166BC" d="M407.9,404.5l-0.5,0c-1.8-0.1-3.3,1.3-3.4,3.1c-0.1,1.8,1.3,3.3,3.1,3.4l0.5,0
			c0,0,0.1,0,0.1,0c1.7,0,3.2-1.4,3.2-3.1C411.1,406,409.7,404.5,407.9,404.5z"/>
		<path opacity="0.4" fill="#A166BC" d="M409.6,440.1l-0.4-0.3c-1.4-1.1-3.4-0.9-4.5,0.5c-1.1,1.4-0.9,3.4,0.5,4.5l0.4,0.3
			c0.6,0.5,1.3,0.7,2,0.7c1,0,1.9-0.4,2.5-1.2C411.3,443.2,411,441.2,409.6,440.1z"/>
		<path opacity="0.4" fill="#A166BC" d="M400.7,433.1l-0.4-0.3c-1.4-1.1-3.4-0.9-4.5,0.6c-1.1,1.4-0.9,3.4,0.6,4.5l0.4,0.3
			c0.6,0.5,1.3,0.7,2,0.7c1,0,1.9-0.4,2.5-1.2C402.3,436.2,402.1,434.2,400.7,433.1z"/>
		<path fill="#C48EDD" d="M388.5,430.9c-0.7,0-1.4-0.2-2-0.7l-8.9-7c-1.4-1.1-1.7-3.1-0.6-4.5c1.1-1.4,3.1-1.7,4.5-0.6l8.9,7
			c1.4,1.1,1.7,3.1,0.5,4.5C390.4,430.5,389.5,430.9,388.5,430.9z"/>
		<path fill="#5795CE" d="M1032,495c-1.2,0-2.4-0.8-2.7-2.1l-2.7-9.5c-0.4-1.5,0.4-3.1,1.9-3.5c1.5-0.4,3.1,0.4,3.5,1.9l2.7,9.5
			c0.4,1.5-0.4,3.1-1.9,3.5C1032.5,494.9,1032.2,495,1032,495z"/>
		<path fill="#5795CE" d="M1013.3,495.2c-0.3,0-0.7-0.1-1-0.2c-1.5-0.5-2.2-2.2-1.7-3.6l3.4-9.3c0.5-1.5,2.2-2.2,3.6-1.7
			c1.5,0.5,2.2,2.2,1.7,3.6l-3.4,9.3C1015.5,494.5,1014.5,495.2,1013.3,495.2z"/>
		<path fill="#5795CE" d="M998.1,484.5c-0.9,0-1.8-0.4-2.3-1.3c-0.9-1.3-0.5-3,0.8-3.9l8.2-5.5c1.3-0.9,3.1-0.5,3.9,0.8
			c0.9,1.3,0.5,3-0.8,3.9l-8.2,5.5C999.1,484.3,998.6,484.5,998.1,484.5z"/>
		<path fill="#5795CE" d="M1001.9,467.2c0,0-0.1,0-0.1,0l-9.9-0.4c-1.6-0.1-2.8-1.4-2.7-2.9c0.1-1.6,1.4-2.8,2.9-2.7l9.9,0.4
			c1.6,0.1,2.8,1.4,2.7,2.9C1004.7,466,1003.4,467.2,1001.9,467.2z"/>
		<path fill="#5795CE" d="M1005.3,455.1c-0.6,0-1.2-0.2-1.7-0.6l-7.8-6.1c-1.2-1-1.4-2.7-0.5-4c1-1.2,2.7-1.4,4-0.5l7.8,6.1
			c1.2,1,1.4,2.7,0.5,4C1007,454.7,1006.2,455.1,1005.3,455.1z"/>
		<path fill="#5795CE" d="M1015.2,447.3c-1.2,0-2.4-0.8-2.7-2.1l-2.7-9.5c-0.4-1.5,0.4-3.1,1.9-3.5c1.5-0.4,3.1,0.4,3.5,1.9l2.7,9.5
			c0.4,1.5-0.4,3.1-1.9,3.5C1015.7,447.3,1015.5,447.3,1015.2,447.3z"/>
		<path fill="#5795CE" d="M1027.8,446.8c-0.3,0-0.7-0.1-1-0.2c-1.5-0.5-2.2-2.2-1.7-3.6l3.4-9.3c0.5-1.5,2.2-2.2,3.6-1.7
			c1.5,0.5,2.2,2.2,1.7,3.6l-3.4,9.3C1030,446.1,1028.9,446.8,1027.8,446.8z"/>
		<path fill="#5795CE" d="M1038.2,453.8c-0.9,0-1.8-0.4-2.3-1.3c-0.9-1.3-0.5-3.1,0.8-3.9l8.2-5.5c1.3-0.9,3.1-0.5,3.9,0.8
			c0.9,1.3,0.5,3-0.8,3.9l-8.2,5.5C1039.3,453.7,1038.8,453.8,1038.2,453.8z"/>
		<path fill="#5795CE" d="M1052.4,466c0,0-0.1,0-0.1,0l-9.9-0.4c-1.6-0.1-2.8-1.4-2.7-2.9c0.1-1.6,1.4-2.8,2.9-2.7l9.9,0.4
			c1.6,0.1,2.8,1.4,2.7,2.9C1055.2,464.8,1054,466,1052.4,466z"/>
		<path opacity="0.4" fill="#5795CE" d="M1035.8,505.7c1.5-0.4,2.4-2,1.9-3.5l-0.1-0.5c-0.4-1.5-2-2.4-3.5-1.9
			c-1.5,0.4-2.4,2-1.9,3.5l0.1,0.5c0.4,1.2,1.5,2.1,2.7,2.1C1035.3,505.9,1035.6,505.8,1035.8,505.7z"/>
		<path opacity="0.4" fill="#5795CE" d="M1040.4,511.3c-0.4-1.5-2-2.4-3.5-1.9c-1.5,0.4-2.4,2-1.9,3.5l0.1,0.5
			c0.4,1.2,1.5,2.1,2.7,2.1c0.3,0,0.5,0,0.8-0.1c1.5-0.4,2.4-2,1.9-3.5L1040.4,511.3z"/>
		<path opacity="0.4" fill="#5795CE" d="M1010.5,499.9c-1.5-0.5-3.1,0.2-3.6,1.7l-0.2,0.4c-0.5,1.5,0.2,3.1,1.7,3.6
			c0.3,0.1,0.6,0.2,1,0.2c1.2,0,2.2-0.7,2.7-1.9l0.2-0.4C1012.8,502.1,1012,500.5,1010.5,499.9z"/>
		<path opacity="0.4" fill="#5795CE" d="M1007.1,509.2c-1.5-0.5-3.1,0.2-3.6,1.7l-0.2,0.4c-0.5,1.5,0.2,3.1,1.7,3.6
			c0.3,0.1,0.7,0.2,1,0.2c1.2,0,2.2-0.7,2.7-1.9l0.2-0.4C1009.4,511.4,1008.6,509.8,1007.1,509.2z"/>
		<path opacity="0.4" fill="#5795CE" d="M987.5,485.3l-0.4,0.3c-1.3,0.9-1.6,2.6-0.8,3.9c0.5,0.8,1.4,1.2,2.3,1.2
			c0.5,0,1.1-0.2,1.6-0.5l0.4-0.3c1.3-0.9,1.6-2.6,0.8-3.9C990.5,484.8,988.8,484.5,987.5,485.3z"/>
		<path opacity="0.4" fill="#5795CE" d="M979.3,490.9l-0.4,0.3c-1.3,0.9-1.6,2.6-0.8,3.9c0.5,0.8,1.4,1.3,2.3,1.3
			c0.5,0,1.1-0.2,1.6-0.5l0.4-0.3c1.3-0.9,1.6-2.6,0.8-3.9C982.3,490.3,980.6,490,979.3,490.9z"/>
		<path opacity="0.4" fill="#5795CE" d="M971.4,460.4l-0.5,0c-1.5-0.1-2.9,1.2-2.9,2.7c-0.1,1.6,1.2,2.9,2.7,2.9l0.5,0
			c0,0,0.1,0,0.1,0c1.5,0,2.8-1.2,2.8-2.7C974.2,461.8,973,460.4,971.4,460.4z"/>
		<path opacity="0.4" fill="#5795CE" d="M981.3,460.8l-0.5,0c-1.6-0.1-2.9,1.2-2.9,2.7c-0.1,1.6,1.2,2.9,2.7,2.9l0.5,0
			c0,0,0.1,0,0.1,0c1.5,0,2.8-1.2,2.8-2.7C984.1,462.1,982.9,460.8,981.3,460.8z"/>
		<path opacity="0.4" fill="#5795CE" d="M983,431.1l-0.4-0.3c-1.2-1-3-0.7-4,0.5c-1,1.2-0.7,3,0.5,4l0.4,0.3
			c0.5,0.4,1.1,0.6,1.7,0.6c0.8,0,1.7-0.4,2.2-1.1C984.4,433.9,984.2,432.1,983,431.1z"/>
		<path opacity="0.4" fill="#5795CE" d="M986.9,441.4l0.4,0.3c0.5,0.4,1.1,0.6,1.7,0.6c0.8,0,1.7-0.4,2.2-1.1c1-1.2,0.7-3-0.5-4
			l-0.4-0.3c-1.2-1-3-0.7-4,0.5C985.5,438.7,985.7,440.4,986.9,441.4z"/>
		<path opacity="0.4" fill="#5795CE" d="M1008.6,421.4c-1.5,0.4-2.4,2-1.9,3.5l0.1,0.5c0.4,1.2,1.5,2.1,2.7,2.1c0.3,0,0.5,0,0.8-0.1
			c1.5-0.4,2.4-2,1.9-3.5l-0.1-0.5C1011.7,421.8,1010.1,420.9,1008.6,421.4z"/>
		<path opacity="0.4" fill="#5795CE" d="M1004.1,415.8c0.4,1.2,1.5,2.1,2.7,2.1c0.3,0,0.5,0,0.8-0.1c1.5-0.4,2.4-2,1.9-3.5l-0.1-0.5
			c-0.4-1.5-2-2.4-3.5-1.9c-1.5,0.4-2.4,2-1.9,3.5L1004.1,415.8z"/>
		<path opacity="0.4" fill="#5795CE" d="M1033.9,427.2c0.3,0.1,0.6,0.2,1,0.2c1.2,0,2.2-0.7,2.7-1.9l0.2-0.4
			c0.5-1.5-0.2-3.1-1.7-3.6c-1.5-0.5-3.1,0.2-3.6,1.7l-0.2,0.4C1031.7,425,1032.5,426.7,1033.9,427.2z"/>
		<path opacity="0.4" fill="#5795CE" d="M1039.4,412.2c-1.5-0.5-3.1,0.2-3.6,1.7l-0.2,0.4c-0.5,1.5,0.2,3.1,1.7,3.6
			c0.3,0.1,0.7,0.2,1,0.2c1.2,0,2.2-0.7,2.7-1.9l0.2-0.4C1041.6,414.3,1040.9,412.7,1039.4,412.2z"/>
		<path opacity="0.4" fill="#5795CE" d="M1062.4,431.3l-0.4,0.3c-1.3,0.9-1.6,2.6-0.8,3.9c0.5,0.8,1.4,1.2,2.3,1.2
			c0.5,0,1.1-0.2,1.6-0.5l0.4-0.3c1.3-0.9,1.6-2.6,0.8-3.9C1065.5,430.8,1063.7,430.4,1062.4,431.3z"/>
		<path opacity="0.4" fill="#5795CE" d="M1054.2,436.8l-0.4,0.3c-1.3,0.9-1.6,2.6-0.8,3.9c0.5,0.8,1.4,1.2,2.3,1.2
			c0.5,0,1.1-0.2,1.6-0.5l0.4-0.3c1.3-0.9,1.6-2.6,0.8-3.9C1057.3,436.3,1055.5,436,1054.2,436.8z"/>
		<path opacity="0.4" fill="#5795CE" d="M1073.7,461.1l-0.5,0c-1.6-0.1-2.9,1.2-2.9,2.7c-0.1,1.6,1.2,2.9,2.7,2.9l0.5,0
			c0,0,0.1,0,0.1,0c1.5,0,2.8-1.2,2.8-2.7C1076.5,462.5,1075.3,461.2,1073.7,461.1z"/>
		<path opacity="0.4" fill="#5795CE" d="M1063.8,460.7l-0.5,0c-1.6-0.1-2.9,1.2-2.9,2.7c-0.1,1.6,1.2,2.9,2.7,2.9l0.5,0
			c0,0,0.1,0,0.1,0c1.5,0,2.8-1.2,2.8-2.7C1066.6,462.1,1065.4,460.8,1063.8,460.7z"/>
		<path opacity="0.4" fill="#5795CE" d="M1065.3,491.8l-0.4-0.3c-1.2-1-3-0.7-4,0.5c-1,1.2-0.7,3,0.5,4l0.4,0.3
			c0.5,0.4,1.1,0.6,1.7,0.6c0.8,0,1.7-0.4,2.2-1.1C1066.8,494.6,1066.6,492.8,1065.3,491.8z"/>
		<path opacity="0.4" fill="#5795CE" d="M1057.6,485.7l-0.4-0.3c-1.2-1-3-0.7-4,0.5c-1,1.2-0.7,3,0.5,4l0.4,0.3
			c0.5,0.4,1.1,0.6,1.7,0.6c0.8,0,1.7-0.4,2.2-1.1C1059,488.5,1058.8,486.7,1057.6,485.7z"/>
		<path fill="#5795CE" d="M1046.9,483.8c-0.6,0-1.2-0.2-1.7-0.6l-7.8-6.1c-1.2-1-1.4-2.7-0.5-4c1-1.2,2.7-1.4,4-0.5l7.8,6.1
			c1.2,1,1.4,2.7,0.5,4C1048.6,483.4,1047.8,483.8,1046.9,483.8z"/>
		<path fill="#FCA54F" d="M682.9,274.1c-1.2,0-2.4-0.8-2.7-2.1l-2.7-9.5c-0.4-1.5,0.4-3.1,1.9-3.5c1.5-0.4,3.1,0.4,3.5,1.9l2.7,9.5
			c0.4,1.5-0.4,3.1-1.9,3.5C683.4,274.1,683.2,274.1,682.9,274.1z"/>
		<path fill="#FCA54F" d="M664.3,274.4c-0.3,0-0.7-0.1-1-0.2c-1.5-0.5-2.2-2.2-1.7-3.6l3.4-9.3c0.5-1.5,2.2-2.2,3.6-1.7
			c1.5,0.5,2.2,2.2,1.7,3.6l-3.4,9.3C666.5,273.7,665.4,274.4,664.3,274.4z"/>
		<path fill="#FCA54F" d="M649,263.6c-0.9,0-1.8-0.4-2.3-1.3c-0.9-1.3-0.5-3,0.8-3.9l8.2-5.5c1.3-0.9,3.1-0.5,3.9,0.8
			c0.9,1.3,0.5,3-0.8,3.9l-8.2,5.5C650.1,263.5,649.5,263.6,649,263.6z"/>
		<path fill="#FCA54F" d="M652.9,246.3c0,0-0.1,0-0.1,0l-9.9-0.4c-1.6-0.1-2.8-1.4-2.7-2.9c0.1-1.6,1.4-2.8,2.9-2.7l9.9,0.4
			c1.6,0.1,2.8,1.4,2.7,2.9C655.6,245.1,654.4,246.3,652.9,246.3z"/>
		<path fill="#FCA54F" d="M656.3,234.2c-0.6,0-1.2-0.2-1.7-0.6l-7.8-6.1c-1.2-1-1.4-2.7-0.5-4c1-1.2,2.7-1.4,4-0.5l7.8,6.1
			c1.2,1,1.4,2.7,0.5,4C658,233.9,657.1,234.2,656.3,234.2z"/>
		<path fill="#FCA54F" d="M666.2,226.5c-1.2,0-2.4-0.8-2.7-2.1l-2.7-9.5c-0.4-1.5,0.4-3.1,1.9-3.5c1.5-0.4,3.1,0.4,3.5,1.9l2.7,9.5
			c0.4,1.5-0.4,3.1-1.9,3.5C666.7,226.4,666.4,226.5,666.2,226.5z"/>
		<path fill="#FCA54F" d="M678.7,226c-0.3,0-0.7-0.1-1-0.2c-1.5-0.5-2.2-2.2-1.7-3.6l3.4-9.3c0.5-1.5,2.2-2.2,3.6-1.7
			c1.5,0.5,2.2,2.2,1.7,3.6l-3.4,9.3C681,225.3,679.9,226,678.7,226z"/>
		<path fill="#FCA54F" d="M689.2,233c-0.9,0-1.8-0.4-2.3-1.3c-0.9-1.3-0.5-3.1,0.8-3.9l8.2-5.5c1.3-0.9,3.1-0.5,3.9,0.8
			c0.9,1.3,0.5,3-0.8,3.9l-8.2,5.5C690.3,232.8,689.7,233,689.2,233z"/>
		<path fill="#FCA54F" d="M703.4,245.1c0,0-0.1,0-0.1,0l-9.9-0.4c-1.6-0.1-2.8-1.4-2.7-2.9c0.1-1.6,1.4-2.8,2.9-2.7l9.9,0.4
			c1.6,0.1,2.8,1.4,2.7,2.9C706.2,243.9,704.9,245.1,703.4,245.1z"/>
		<path opacity="0.4" fill="#E561B0" d="M686.8,284.9c1.5-0.4,2.4-2,1.9-3.5l-0.1-0.5c-0.4-1.5-2-2.4-3.5-1.9
			c-1.5,0.4-2.4,2-1.9,3.5l0.1,0.5c0.4,1.2,1.5,2.1,2.7,2.1C686.3,285,686.5,285,686.8,284.9z"/>
		<path opacity="0.4" fill="#E561B0" d="M691.3,290.5c-0.4-1.5-2-2.4-3.5-1.9c-1.5,0.4-2.4,2-1.9,3.5l0.1,0.5
			c0.4,1.2,1.5,2.1,2.7,2.1c0.3,0,0.5,0,0.8-0.1c1.5-0.4,2.4-2,1.9-3.5L691.3,290.5z"/>
		<path opacity="0.4" fill="#E561B0" d="M661.5,279.1c-1.5-0.5-3.1,0.2-3.6,1.7l-0.2,0.4c-0.5,1.5,0.2,3.1,1.7,3.6
			c0.3,0.1,0.6,0.2,1,0.2c1.2,0,2.2-0.7,2.7-1.9l0.2-0.4C663.7,281.2,663,279.6,661.5,279.1z"/>
		<path opacity="0.4" fill="#E561B0" d="M658.1,288.4c-1.5-0.5-3.1,0.2-3.6,1.7l-0.2,0.4c-0.5,1.5,0.2,3.1,1.7,3.6
			c0.3,0.1,0.7,0.2,1,0.2c1.2,0,2.2-0.7,2.7-1.9l0.2-0.4C660.3,290.5,659.6,288.9,658.1,288.4z"/>
		<path opacity="0.4" fill="#E561B0" d="M638.4,264.5l-0.4,0.3c-1.3,0.9-1.6,2.6-0.8,3.9c0.5,0.8,1.4,1.2,2.3,1.2
			c0.5,0,1.1-0.2,1.6-0.5l0.4-0.3c1.3-0.9,1.6-2.6,0.8-3.9C641.5,264,639.7,263.6,638.4,264.5z"/>
		<path opacity="0.4" fill="#E561B0" d="M630.2,270l-0.4,0.3c-1.3,0.9-1.6,2.6-0.8,3.9c0.5,0.8,1.4,1.3,2.3,1.3
			c0.5,0,1.1-0.2,1.6-0.5l0.4-0.3c1.3-0.9,1.6-2.6,0.8-3.9C633.3,269.5,631.5,269.1,630.2,270z"/>
		<path opacity="0.4" fill="#E561B0" d="M622.4,239.5l-0.5,0c-1.5-0.1-2.9,1.2-2.9,2.7c-0.1,1.6,1.2,2.9,2.7,2.9l0.5,0
			c0,0,0.1,0,0.1,0c1.5,0,2.8-1.2,2.8-2.7C625.2,240.9,623.9,239.6,622.4,239.5z"/>
		<path opacity="0.4" fill="#E561B0" d="M632.3,239.9l-0.5,0c-1.6-0.1-2.9,1.2-2.9,2.7c-0.1,1.6,1.2,2.9,2.7,2.9l0.5,0
			c0,0,0.1,0,0.1,0c1.5,0,2.8-1.2,2.8-2.7C635,241.3,633.8,240,632.3,239.9z"/>
		<path opacity="0.4" fill="#E561B0" d="M634,210.3l-0.4-0.3c-1.2-1-3-0.7-4,0.5c-1,1.2-0.7,3,0.5,4l0.4,0.3
			c0.5,0.4,1.1,0.6,1.7,0.6c0.8,0,1.7-0.4,2.2-1.1C635.4,213,635.2,211.2,634,210.3z"/>
		<path opacity="0.4" fill="#E561B0" d="M637.9,220.5l0.4,0.3c0.5,0.4,1.1,0.6,1.7,0.6c0.8,0,1.7-0.4,2.2-1.1c1-1.2,0.7-3-0.5-4
			l-0.4-0.3c-1.2-1-3-0.7-4,0.5C636.4,217.8,636.7,219.6,637.9,220.5z"/>
		<path opacity="0.4" fill="#E561B0" d="M659.6,200.5c-1.5,0.4-2.4,2-1.9,3.5l0.1,0.5c0.4,1.2,1.5,2.1,2.7,2.1c0.3,0,0.5,0,0.8-0.1
			c1.5-0.4,2.4-2,1.9-3.5l-0.1-0.5C662.7,201,661.1,200.1,659.6,200.5z"/>
		<path opacity="0.4" fill="#E561B0" d="M655.1,195c0.4,1.2,1.5,2.1,2.7,2.1c0.3,0,0.5,0,0.8-0.1c1.5-0.4,2.4-2,1.9-3.5l-0.1-0.5
			c-0.4-1.5-2-2.4-3.5-1.9c-1.5,0.4-2.4,2-1.9,3.5L655.1,195z"/>
		<path opacity="0.4" fill="#E561B0" d="M684.9,206.3c0.3,0.1,0.6,0.2,1,0.2c1.2,0,2.2-0.7,2.7-1.9l0.2-0.4c0.5-1.5-0.2-3.1-1.7-3.6
			c-1.5-0.5-3.1,0.2-3.6,1.7l-0.2,0.4C682.7,204.2,683.4,205.8,684.9,206.3z"/>
		<path opacity="0.4" fill="#E561B0" d="M690.4,191.3c-1.5-0.5-3.1,0.2-3.6,1.7l-0.2,0.4c-0.5,1.5,0.2,3.1,1.7,3.6
			c0.3,0.1,0.7,0.2,1,0.2c1.2,0,2.2-0.7,2.7-1.9l0.2-0.4C692.6,193.5,691.9,191.8,690.4,191.3z"/>
		<path opacity="0.4" fill="#E561B0" d="M713.4,210.5l-0.4,0.3c-1.3,0.9-1.6,2.6-0.8,3.9c0.5,0.8,1.4,1.2,2.3,1.2
			c0.5,0,1.1-0.2,1.6-0.5l0.4-0.3c1.3-0.9,1.6-2.6,0.8-3.9C716.4,209.9,714.7,209.6,713.4,210.5z"/>
		<path opacity="0.4" fill="#E561B0" d="M705.2,216l-0.4,0.3c-1.3,0.9-1.6,2.6-0.8,3.9c0.5,0.8,1.4,1.2,2.3,1.2
			c0.5,0,1.1-0.2,1.6-0.5l0.4-0.3c1.3-0.9,1.6-2.6,0.8-3.9C708.2,215.4,706.5,215.1,705.2,216z"/>
		<path opacity="0.4" fill="#E561B0" d="M724.7,240.2l-0.5,0c-1.6-0.1-2.9,1.2-2.9,2.7c-0.1,1.6,1.2,2.9,2.7,2.9l0.5,0
			c0,0,0.1,0,0.1,0c1.5,0,2.8-1.2,2.8-2.7C727.5,241.6,726.2,240.3,724.7,240.2z"/>
		<path opacity="0.4" fill="#E561B0" d="M714.8,239.9l-0.5,0c-1.6-0.1-2.9,1.2-2.9,2.7c-0.1,1.6,1.2,2.9,2.7,2.9l0.5,0
			c0,0,0.1,0,0.1,0c1.5,0,2.8-1.2,2.8-2.7C717.6,241.3,716.3,239.9,714.8,239.9z"/>
		<path opacity="0.4" fill="#E561B0" d="M716.3,271l-0.4-0.3c-1.2-1-3-0.7-4,0.5c-1,1.2-0.7,3,0.5,4l0.4,0.3
			c0.5,0.4,1.1,0.6,1.7,0.6c0.8,0,1.7-0.4,2.2-1.1C717.7,273.7,717.5,271.9,716.3,271z"/>
		<path opacity="0.4" fill="#E561B0" d="M708.5,264.9l-0.4-0.3c-1.2-1-3-0.7-4,0.5c-1,1.2-0.7,3,0.5,4l0.4,0.3
			c0.5,0.4,1.1,0.6,1.7,0.6c0.8,0,1.7-0.4,2.2-1.1C710,267.6,709.7,265.8,708.5,264.9z"/>
		<path fill="#FCA54F" d="M697.9,262.9c-0.6,0-1.2-0.2-1.7-0.6l-7.8-6.1c-1.2-1-1.4-2.7-0.5-4c1-1.2,2.7-1.4,4-0.5l7.8,6.1
			c1.2,1,1.4,2.7,0.5,4C699.5,262.6,698.7,262.9,697.9,262.9z"/>
		<g>
			<circle fill="#EFEFEF" cx="791.7" cy="568.7" r="55.3"/>
			<path fill="#C05AE2" d="M827.6,526.6c3.3,16.1-0.9,34.4-9.1,48.4c-9.1,15.7-23.6,27.8-40.7,33.8c-3.7,1.3-7.5,2.3-11.3,3
				c-1.8,0.3-7.2,1.9-8.7,0.6c-0.5-0.4-1.6-1-1.9-1.6c-0.6-0.9-0.4-2.9-0.6-4c-0.5-3.9-0.4-7.9-0.2-11.8c1.2-18.1,9-35.2,21.7-48.2
				c7.8-8,17.3-14.1,27.8-17.9c4.8-1.7,9.8-3.1,14.9-3.8c1.4-0.2,4.4-1,5.8-0.5C826.1,525,826.9,526,827.6,526.6z"/>
			<g opacity="0.2">
				<defs>
					<circle id="SVGID_6_" opacity="0.2" cx="791.7" cy="568.7" r="55.3"/>
				</defs>
				<clipPath id="SVGID_7_">
					<use xlink:href="#SVGID_6_"  overflow="visible"/>
				</clipPath>
			</g>
			<path opacity="0.1" d="M741.3,574.9c0-28.4,23.7-52.2,52.2-52.2c28.4,0,52.2,23.7,52.2,52.2c0,3.6-0.4,7.1-1.1,10.5
				c6.6-21.1,0.2-45-18.1-59.7c-23.8-19.2-58.6-15.4-77.8,8.4c-19,23.6-15.5,58.2,7.9,77.4C747.2,602,741.3,589,741.3,574.9z"/>
		</g>
		<g>
			<path opacity="0.4" d="M585.9,418.2l52.1-43.4l-39.4,62.7l3.4,3.3c0,0,1.4,1.3,3.1,3s1.9,4.3,0.3,6c-1.6,1.6-4.3,1.6-6.2-0.2
				s-3.3-3.2-3.3-3.2l-6.7-6.4L585.9,418.2z"/>
			<path opacity="0.4" d="M554.2,451.7l-40.7,54.2l60.6-42.5l3.4,3.3c0,0,1.4,1.3,3.1,3c1.7,1.6,4.4,1.6,6,0
				c1.6-1.6,1.3-4.4-0.5-6.2s-3.3-3.2-3.3-3.2l-6.7-6.4L554.2,451.7z"/>
			<path fill="#FFFFFF" d="M595.7,334.6l42.3,40.2l-45.5,47.9c-9.8-9.3-25.2-8.9-34.5,0.9c-9.3,9.8-8.9,25.2,0.9,34.5l-45.5,47.9
				l-42.3-40.2L595.7,334.6z"/>
			<polygon fill="#DD4B4B" points="514,490.1 542.6,459.9 542.1,431.3 530.4,420 487.7,465 			"/>
			<polygon fill="#2196F3" points="622,376.4 593.4,406.5 564.8,407.4 553,396.3 595.7,351.3 			"/>
			<path opacity="0.2" fill="#FFFFFF" d="M513.4,489.4L487.7,465l42.7-45l0.8,0.8C518.8,441.7,512.8,465.6,513.4,489.4z"/>
			<path opacity="0.2" fill="#FFFFFF" d="M577.5,407l-12.7,0.4L553,396.3l42.7-45l0.9,0.8C585.9,368.9,579.6,387.8,577.5,407z"/>
			<g opacity="0.2">
				<defs>
					<path id="SVGID_8_" opacity="0.2" d="M595.7,334.6l42.3,40.2l-45.5,47.9c-9.8-9.3-25.2-8.9-34.5,0.9
						c-9.3,9.8-8.9,25.2,0.9,34.5l-45.5,47.9l-42.3-40.2L595.7,334.6z"/>
				</defs>
				<clipPath id="SVGID_9_">
					<use xlink:href="#SVGID_8_"  overflow="visible"/>
				</clipPath>
			</g>
		</g>
		<g>
			<rect x="200.7" y="1057.8" opacity="0.3" fill="#212121" width="315.8" height="8"/>
			<g>
				<g>
					<path fill="#6A51B7" d="M454.9,791.4v82.5c0,2.1-1.7,3.7-3.7,3.7H269c-24.1,0-43.7-19.6-43.7-43.7v-2.6
						c0-24.1,19.6-43.7,43.7-43.7h182.2C453.2,787.7,454.9,789.4,454.9,791.4z"/>
				</g>
			</g>
			<path fill="#FFFFFF" d="M484.5,835.6c0-22.8,18.5-41.3,41.3-41.3H350.1c-22.8,0-41.3,18.5-41.3,41.3s18.5,41.3,41.3,41.3h175.6
				C503,876.9,484.5,858.4,484.5,835.6z"/>
			<g>
				<path fill="#3F237C" d="M528.6,877.7H346.3c-24.1,0-43.7-19.6-43.7-43.7v-2.6c0-24.1,19.6-43.7,43.7-43.7h182.2v7.5H346.3
					c-20,0-36.2,16.2-36.2,36.2v2.6c0,20,16.2,36.2,36.2,36.2h182.2V877.7z"/>
			</g>
			<g>
				<defs>
					<path id="SVGID_10_" d="M484.5,835.6c0-22.8,18.5-41.3,41.3-41.3H350.1c-22.8,0-41.3,18.5-41.3,41.3s18.5,41.3,41.3,41.3h175.6
						C503,876.9,484.5,858.4,484.5,835.6z"/>
				</defs>
				<clipPath id="SVGID_11_">
					<use xlink:href="#SVGID_10_"  overflow="visible"/>
				</clipPath>
				<g clip-path="url(#SVGID_11_)">
					<rect x="357.6" y="817" fill="#E0E0E0" width="151" height="7.8"/>
					<rect x="407.5" y="842.2" fill="#E0E0E0" width="151" height="7.8"/>
				</g>
			</g>
			<g>
				<g>
					<path fill="#536DFE" d="M439.5,971.2v82.5c0,2.1-1.7,3.7-3.7,3.7H253.6c-24.1,0-43.7-19.6-43.7-43.7v-2.6
						c0-24.1,19.6-43.7,43.7-43.7h182.2C437.9,967.4,439.5,969.1,439.5,971.2z"/>
				</g>
			</g>
			<path fill="#FFFFFF" d="M441.7,1012.4c0-22.8,18.5-41.3,41.3-41.3H334.8c-22.8,0-41.3,18.5-41.3,41.3c0,22.8,18.5,41.3,41.3,41.3
				h148.2C460.1,1053.7,441.7,1035.2,441.7,1012.4z"/>
			<g>
				<path fill="#3F51B5" d="M485.7,1057.4H331c-24.1,0-43.7-19.6-43.7-43.7v-2.6c0-24.1,19.6-43.7,43.7-43.7h154.8v7.5H331
					c-20,0-36.2,16.2-36.2,36.2v2.6c0,20,16.2,36.2,36.2,36.2h154.8V1057.4z"/>
			</g>
			<g>
				<defs>
					<path id="SVGID_12_" d="M441.7,1012.4c0-22.8,18.5-41.3,41.3-41.3H334.8c-22.8,0-41.3,18.5-41.3,41.3
						c0,22.8,18.5,41.3,41.3,41.3h148.2C460.1,1053.7,441.7,1035.2,441.7,1012.4z"/>
				</defs>
				<clipPath id="SVGID_13_">
					<use xlink:href="#SVGID_12_"  overflow="visible"/>
				</clipPath>
				<g clip-path="url(#SVGID_13_)">
					<rect x="367.2" y="993.8" fill="#E0E0E0" width="98.6" height="7.8"/>
					<rect x="367.2" y="1019" fill="#E0E0E0" width="148.5" height="7.8"/>
				</g>
			</g>
			<g>
				<g>
					<path fill="#976DC9" d="M417.5,881.1v82.5c0,2.1-1.7,3.7-3.7,3.7H231.5c-24.1,0-43.7-19.6-43.7-43.7v-2.6
						c0-24.1,19.6-43.7,43.7-43.7h182.2C415.8,877.4,417.5,879.1,417.5,881.1z"/>
				</g>
			</g>
			<path fill="#FFFFFF" d="M440.9,922.4c0-22.8,15.4-41.3,34.4-41.3H299.6c-19,0-34.4,18.5-34.4,41.3s15.4,41.3,34.4,41.3h175.6
				C456.3,963.7,440.9,945.2,440.9,922.4z"/>
			<g>
				<path fill="#6E48AA" d="M484.3,967.4H308.9c-24.1,0-43.7-19.6-43.7-43.7v-2.6c0-24.1,19.6-43.7,43.7-43.7h175.4v7.5H308.9
					c-20,0-36.2,16.2-36.2,36.2v2.6c0,20,16.2,36.2,36.2,36.2h175.4V967.4z"/>
			</g>
			<g>
				<defs>
					<path id="SVGID_14_" d="M440.3,922.4c0-22.8,18.5-41.3,41.3-41.3H333.4c-22.8,0-41.3,18.5-41.3,41.3s18.5,41.3,41.3,41.3h148.2
						C458.7,963.7,440.3,945.2,440.3,922.4z"/>
				</defs>
				<clipPath id="SVGID_15_">
					<use xlink:href="#SVGID_14_"  overflow="visible"/>
				</clipPath>
				<g clip-path="url(#SVGID_15_)">
					<rect x="390.7" y="903.8" fill="#E0E0E0" width="73.6" height="7.8"/>
					<rect x="340.8" y="929" fill="#E0E0E0" width="173.5" height="7.8"/>
				</g>
			</g>
		</g>
		<polygon fill="#D8BAA3" points="340.4,757.5 340.3,772.5 347.5,774.2 347.8,761.5 		"/>
		<polygon fill="#D8BAA3" points="239.3,847.1 231.7,862.5 240.6,862.5 245.7,852.6 		"/>
		<path fill="#072851" d="M253.4,789.4l-2.2-38.1l-3.8-43.8l39.5-20.1l20-2.1l17.6-6l26.3-11c4.7-2,15.1-6.1,14,4L350.2,764
			l-13.2-4.1l2.4-54.9l-49.4,30.3l-8.6,3.5l-7.7,57.1l-0.8,0.2l0.5,0.5l-27.3,59.6l-10.7-8.6L253.4,789.4z"/>
		<polygon fill="#1E1E1E" points="371.5,683.4 361.6,691.8 312.4,666.6 329.9,658.7 		"/>
		<path fill="#FFFFFF" d="M229.4,860.7v16.7h54.5C283.8,877.4,281.9,866.3,229.4,860.7z"/>
		<path fill="#FFFFFF" d="M335.5,769.8v17.4h56.9C392.4,787.2,390.4,775.6,335.5,769.8z"/>
		<path fill="#FFFFFF" d="M326.9,602.6c0,0-46.8-15.9-44.2-15.9l-6.8,8.9c-35.3,27.1-28.6,111.9-28.6,111.9l53.6-7.4
			c-25.5-30.3,8.7-60.5,8.7-60.5C317.6,628.9,325.6,609.4,326.9,602.6z"/>
		<path fill="#1E1E1E" d="M323,600c0,0-52.5,62.8-25.9,105h15.2c0,0-21.8-8.1,1.8-52.1l-1.8,13.7l19.8-0.9l9.3-53.1L323,600z"/>
		<polygon fill="#FFFFFF" points="395.3,669.7 282.4,695.6 283.7,706.9 396.7,681 		"/>
		<path fill="#1E1E1E" d="M288.5,586.2l-22.7-3.4l-64,56.4l14.5,13.5l31.7-24.9c-8.4,41.4,0.2,80.8,0.2,80.8l25.3,1.3
			C256.4,676.1,288.5,586.2,288.5,586.2z"/>
		<path fill="#D8BAA3" d="M302.2,613l-9.2-3.2c-2.5-0.9-3.9-3.7-3-6.2l6.8-19.5c0.9-2.5,3.7-3.9,6.2-3l9.2,3.2
			c2.5,0.9,3.9,3.7,3,6.2l-6.8,19.5C307.5,612.5,304.7,613.9,302.2,613z"/>
		<path fill="#F9D9BB" d="M318.2,590l-0.5,0.3c-10.1,5.8-22.9,2.2-28.7-7.8l-6.7-11.7c-5.8-10.1-2.2-22.9,7.8-28.7l0.5-0.3
			c10.1-5.8,14.3-3.4,20,6.7l10.6,18.3C327,576.9,328.3,584.2,318.2,590z"/>
		<path fill="#F9D9BB" d="M357.8,694.2l-2.6-4.4c-0.7-1.2-0.3-2.7,0.9-3.5l14.2-8.4c1.2-0.7,2.7-0.3,3.5,0.9l2.6,4.4
			c0.7,1.2,0.3,2.7-0.9,3.5l-14.2,8.4C360,695.8,358.5,695.4,357.8,694.2z"/>
		<path fill="#1E1E1E" d="M289,582.5c0,0-6.4-12.5,1.3-17.6l-2.9-7.7c0,0,70.3-17.8,21.6-53c0,0,0.2,9.5-10,11.4
			C284.8,518.3,245.6,536.4,289,582.5z"/>
		<path fill="#1E1E1E" d="M312.4,546.6c0,0,23.7-10.2,22.8-26.1c0,0-11.7,19.8-24.1,19.2L312.4,546.6z"/>
		
			<rect x="395.1" y="661.3" transform="matrix(0.9817 -0.1907 0.1907 0.9817 -120.6078 90.7548)" fill="#3FB0EF" width="32.3" height="21.5"/>
		<path fill="#3FB0EF" d="M295.6,674c-5-4.4-11.3-6.4-19.3-4.1c-7.2,2.1-11.4,7-15.8,12.7c-2.7,3.5-6.9,5.9-11.4,5.8
			c-8-0.2-13-4.2-20-7.4c-8.3-3.7-18.7-8-27.5-5.4c-18.2,5.3-25.4,23.6-24.7,41.2c1.1,26.8,19.6,64,52.6,54.3
			c8.7-2.6,15.2-11.8,20.2-19.4c4.3-6.4,7.2-9.2,13.9-13.7c3.7-2.5,8.6-2.7,12.7-1.2c6.8,2.4,12.9,4.3,20.1,2.2
			c9.3-2.7,13.5-9.3,14.8-17.3C285,724.9,273.3,686.7,295.6,674z"/>
		<circle fill="#1E1E1E" cx="255" cy="708.9" r="13"/>
		<path fill="#F9D9BB" d="M262,710.7l-7,6.4c-1.9,1.7-4.8,1.6-6.5-0.3l-10.2-11.2c-1.7-1.9-1.6-4.8,0.3-6.5l7-6.4
			c1.9-1.7,4.8-1.6,6.5,0.3l10.2,11.2C264,706.1,263.8,709,262,710.7z"/>
		<polygon fill="#1E1E1E" points="248.3,692.9 238,700.1 202.6,640 222.4,639.3 		"/>
		<polygon fill="none" points="365.9,662.2 366.5,661.7 324.5,634.7 324.5,642 306,643 247.3,707.5 251.2,751.3 253.4,789.4 
			235.4,847.6 246.2,856.2 273.5,796.6 273,796.2 273.8,795.9 281.5,738.8 290.1,735.3 340.3,701.5 337.1,759.9 350.2,764 
			366.5,662.4 		"/>
		<rect x="384.8" y="780.9" fill="#20242D" width="36.4" height="6.4"/>
		<rect x="398.9" y="625.6" fill="#20242D" width="7.2" height="157.1"/>
		<path fill="#FFFFFF" d="M398.1,575.7h8.8c2.4,0,4.4,2,4.4,4.4v33.7c0,2.4-2,4.4-4.4,4.4h-8.8c-2.4,0-4.4-2-4.4-4.4v-33.7
			C393.7,577.7,395.6,575.7,398.1,575.7z"/>
		<g>
			<path fill="#20242D" d="M402.5,628.7c-10.5,0-19-8.5-19-19v-9.4h4.1v9.4c0,8.2,6.7,14.9,14.9,14.9c8.2,0,14.9-6.7,14.9-14.9v-9.4
				h4.1v9.4C421.4,620.2,412.9,628.7,402.5,628.7z"/>
		</g>
		<g>
			<rect x="377.5" y="597.9" fill="#20242D" width="50" height="4.1"/>
		</g>
		<g>
			<path fill="#212121" d="M1181.9,783.8h-4.2c-1.2,0-2.1-0.9-2.1-2.1V670.9c0-1.2,0.9-2.1,2.1-2.1h4.2c1.2,0,2.1,0.9,2.1,2.1v110.8
				C1184,782.9,1183,783.8,1181.9,783.8z"/>
			<path fill="#212121" d="M1171.8,709.8v81.4c0,2.9,3.6,5.2,8,5.2c4.4,0,8-2.3,8-5.2v-81.4H1171.8z"/>
			<path fill="#B22F2F" d="M1155.6,907.3c-11.1,0-11.1-17.2,0-17.2H1267v-62.3c0-25.5-20.7-46.2-46.2-46.2H944.5
				c-25.5,0-46.2,20.7-46.2,46.2v177.9c0,25.5,20.7,46.2,46.2,46.2h276.3c25.5,0,46.2-20.7,46.2-46.2v-98.4H1155.6z"/>
			<g opacity="0.1">
				<defs>
					<path id="SVGID_16_" opacity="0.1" d="M1155.6,907.3c-11.1,0-11.1-17.2,0-17.2H1267v-62.3c0-25.5-20.7-46.2-46.2-46.2H944.5
						c-25.5,0-46.2,20.7-46.2,46.2v177.9c0,25.5,20.7,46.2,46.2,46.2h276.3c25.5,0,46.2-20.7,46.2-46.2v-98.4H1155.6z"/>
				</defs>
				<clipPath id="SVGID_17_">
					<use xlink:href="#SVGID_16_"  overflow="visible"/>
				</clipPath>
			</g>
			<g opacity="0.3">
				<defs>
					<path id="SVGID_18_" opacity="0.3" d="M1155.6,907.3c-11.1,0-11.1-17.2,0-17.2H1267v-62.3c0-25.5-20.7-46.2-46.2-46.2H944.5
						c-25.5,0-46.2,20.7-46.2,46.2v177.9c0,25.5,20.7,46.2,46.2,46.2h276.3c25.5,0,46.2-20.7,46.2-46.2v-98.4H1155.6z"/>
				</defs>
				<clipPath id="SVGID_19_">
					<use xlink:href="#SVGID_18_"  overflow="visible"/>
				</clipPath>
			</g>
			<path fill="#E23B3B" d="M1151.9,1051.9H918.2c-11,0-19.9-8.9-19.9-19.9V801.6c0-11,8.9-19.9,19.9-19.9h233.7
				c11,0,19.9,8.9,19.9,19.9v230.5C1171.8,1043.1,1162.9,1051.9,1151.9,1051.9z"/>
			<path fill="#212121" d="M1095.1,989.3H929.7c-6.5,0-11.8-5.3-11.8-11.8V812c0-6.5,5.3-11.8,11.8-11.8h165.5
				c6.5,0,11.8,5.3,11.8,11.8v165.5C1106.9,984,1101.6,989.3,1095.1,989.3z"/>
			<g opacity="0.1">
				<defs>
					<path id="SVGID_20_" opacity="0.1" d="M1151.9,1051.9H918.2c-11,0-19.9-8.9-19.9-19.9V801.6c0-11,8.9-19.9,19.9-19.9h233.7
						c11,0,19.9,8.9,19.9,19.9v230.5C1171.8,1043.1,1162.9,1051.9,1151.9,1051.9z"/>
				</defs>
				<clipPath id="SVGID_21_">
					<use xlink:href="#SVGID_20_"  overflow="visible"/>
				</clipPath>
			</g>
			<path fill="#212121" d="M1141.1,803.6h-7.5v1.8c-5.6,2.8-9.5,8.5-9.5,15.2c0,6.7,3.9,12.5,9.5,15.2v1.8h7.5c9.4,0,17-7.6,17-17
				C1158.1,811.2,1150.5,803.6,1141.1,803.6z"/>
			<circle fill="#DDDDDD" cx="1133.6" cy="820.6" r="17"/>
			<path fill="#212121" d="M1141.1,847.7h-7.5v1.8c-5.6,2.8-9.5,8.5-9.5,15.2c0,6.7,3.9,12.5,9.5,15.2v1.8h7.5c9.4,0,17-7.6,17-17
				C1158.1,855.3,1150.5,847.7,1141.1,847.7z"/>
			<circle fill="#DDDDDD" cx="1133.6" cy="864.7" r="17"/>
			<rect x="926.1" y="1002.2" fill="#212121" width="35.6" height="15.8"/>
			<g opacity="0.3">
				<defs>
					<path id="SVGID_22_" opacity="0.3" d="M1151.9,1051.9H918.2c-11,0-19.9-8.9-19.9-19.9V801.6c0-11,8.9-19.9,19.9-19.9h233.7
						c11,0,19.9,8.9,19.9,19.9v230.5C1171.8,1043.1,1162.9,1051.9,1151.9,1051.9z"/>
				</defs>
				<clipPath id="SVGID_23_">
					<use xlink:href="#SVGID_22_"  overflow="visible"/>
				</clipPath>
			</g>
			<rect x="921.2" y="1002.2" fill="#DDDDDD" width="35.6" height="15.8"/>
			<rect x="973.5" y="1002.2" fill="#212121" width="35.6" height="15.8"/>
			<rect x="968.7" y="1002.2" fill="#DDDDDD" width="35.6" height="15.8"/>
			<rect x="1020.1" y="1002.2" fill="#212121" width="35.6" height="15.8"/>
			<rect x="1015.2" y="1002.2" fill="#DDDDDD" width="35.6" height="15.8"/>
			<rect x="1067.9" y="1002.2" fill="#212121" width="35.6" height="15.8"/>
			<rect x="1063.1" y="1002.2" fill="#DDDDDD" width="35.6" height="15.8"/>
			<path opacity="0.2" fill="#FFFFFF" d="M1083.3,800.2H941.5c-13.1,0-23.7,10.6-23.7,23.7l10.4,125.7c0,28,3.1,23,3.8,24.1
				c15.3-84.4,84.3-152,169.4-165C1097,803.5,1090.5,800.2,1083.3,800.2z"/>
			<path fill="#212121" d="M928.2,866.5c0-0.4,0.1-0.9,0.1-1.3c-0.1-0.7-0.1-1.4-0.1-2.1v-31.7c0-10.9,9.1-19.9,19.9-19.9
				c0.1,0,0.3,0,0.4,0c0.2,0,0.5,0,0.7,0h139.1c10.5,0,16.7,6.6,18.6,14.5v-2.1c0-13.1-10.6-23.7-23.7-23.7H941.5
				c-13.1,0-23.7,10.6-23.7,23.7v141.7c0,9.2,5.2,17.1,12.8,21c-1.6-5.1-2.4-10.5-2.4-16.1V866.5z"/>
			<g>
				<rect x="1187.8" y="824.9" fill="#8E2626" width="63.3" height="4"/>
			</g>
			<g>
				<rect x="1187.8" y="840.8" fill="#8E2626" width="63.3" height="4"/>
			</g>
			<g>
				<rect x="1187.8" y="856.6" fill="#8E2626" width="63.3" height="4"/>
			</g>
			<g>
				<rect x="1187.8" y="872.4" fill="#8E2626" width="63.3" height="4"/>
			</g>
			<rect x="1171.8" y="890.1" fill="#8E2626" width="83" height="17.2"/>
			<g>
				<rect x="1187.8" y="919.9" fill="#8E2626" width="63.3" height="4"/>
			</g>
			<g>
				<rect x="1187.8" y="935.7" fill="#8E2626" width="63.3" height="4"/>
			</g>
			<g>
				<rect x="1187.8" y="951.6" fill="#8E2626" width="63.3" height="4"/>
			</g>
			<g>
				<rect x="1187.8" y="967.4" fill="#8E2626" width="63.3" height="4"/>
			</g>
			<g opacity="0.2">
				<defs>
					<circle id="SVGID_24_" opacity="0.2" cx="1133.6" cy="864.7" r="17"/>
				</defs>
				<clipPath id="SVGID_25_">
					<use xlink:href="#SVGID_24_"  overflow="visible"/>
				</clipPath>
			</g>
		</g>
		<g>
			
				<rect x="639.2" y="849.3" transform="matrix(0.9866 -0.1631 0.1631 0.9866 -147.4868 145.8132)" fill="#212121" width="350.2" height="243.7"/>
			
				<rect x="634.9" y="938.2" transform="matrix(0.9866 -0.1631 0.1631 0.9866 -143.05 144.7004)" opacity="0.6" fill="#616161" width="349.8" height="10.8"/>
			
				<rect x="647" y="1011.6" transform="matrix(0.9866 -0.1631 0.1631 0.9866 -154.8674 147.6643)" fill="#616161" width="349.8" height="10.8"/>
			
				<rect x="757.7" y="604.5" transform="matrix(0.3366 0.9417 -0.9417 0.3366 1264.3872 -206.1625)" fill="#212121" width="41.6" height="379.5"/>
			
				<rect x="777.9" y="677.3" transform="matrix(-0.1631 -0.9866 0.9866 -0.1631 71.6197 1794.9672)" fill="#212121" width="38.4" height="379.5"/>
			<polygon fill="#FFFFFF" points="641,865.5 592.8,838.5 606.8,877.7 			"/>
			<polygon fill="#FFFFFF" points="606.8,879.1 613,917 639.8,873.7 			"/>
			<polygon fill="#FFFFFF" points="782.9,814.8 731.5,789 662.2,813.7 712.5,840 			"/>
			<polygon fill="#FFFFFF" points="714.5,861.3 685.7,905 760.7,892.6 788.5,849.1 			"/>
			<polygon fill="#FFFFFF" points="927.5,763.1 876.1,737.3 806.8,762.1 857.1,788.3 			"/>
			<polygon fill="#FFFFFF" points="866,836.3 837.2,879.9 912.2,867.5 940.1,824 			"/>
			<circle opacity="0.5" fill="#FFFFFF" cx="680.1" cy="695.2" r="4.9"/>
		</g>
		<g>
			<polygon fill="#FFFFFF" points="398.8,1024.5 467.4,779.1 724.1,881.3 605.3,1106.7 			"/>
			<g>
				<defs>
					<polygon id="SVGID_26_" points="391.6,1050.2 592.9,1130.4 724.1,881.3 467.4,779.1 					"/>
				</defs>
				<clipPath id="SVGID_27_">
					<use xlink:href="#SVGID_26_"  overflow="visible"/>
				</clipPath>
				<g clip-path="url(#SVGID_27_)">
					<g>
						<polygon fill="#BF364D" points="582.8,1097.8 718.6,855.3 741.2,869.1 607.5,1107.6 						"/>
					</g>
					<g>
						<polygon fill="#BF364D" points="545.5,1083 667.4,835.9 690.9,848.1 570.2,1092.8 						"/>
					</g>
					<g>
						<polygon fill="#BF364D" points="508.3,1068.1 616.3,816.5 640.5,827.1 532.9,1077.9 						"/>
					</g>
					<g>
						<polygon fill="#BF364D" points="471,1053.3 565.2,797.1 590.1,806.1 495.6,1063.1 						"/>
					</g>
					<g>
						<polygon fill="#BF364D" points="433.7,1038.4 514.2,777.8 539.6,785 458.4,1048.2 						"/>
					</g>
					<g>
						<polygon fill="#BF364D" points="396.4,1023.6 463.2,758.4 489.1,764 421.1,1033.4 						"/>
					</g>
				</g>
			</g>
			<path fill="#FCF059" d="M471.8,786c0,0.1,0,0.1-0.1,0.2c-4.1,10.2,0.9,21.7,11.1,25.8c6.9,2.7,14.4,1.3,19.8-3
				c1.8,5.2,5.8,9.7,11.4,11.9c4.2,1.7,8.5,1.8,12.5,0.7c1.7,5.5,5.8,10.2,11.6,12.5c8.4,3.3,17.6,0.6,22.9-6.1
				c2.1,4.2,5.7,7.7,10.4,9.6c5.3,2.1,11,1.8,15.8-0.5c1.9,4.9,5.8,9.1,11.1,11.2c7.6,3,15.9,1,21.3-4.3c1.7,1.5,3.6,2.7,5.7,3.5
				c-4.1,10.2,0.9,21.7,11.1,25.8s21.7-0.9,25.8-11.1c0.1-0.2,0.1-0.4,0.2-0.6c1.3,1,2.8,1.8,4.4,2.5c2.2,0.9,4.4,1.3,6.6,1.4
				c0.3,7.6,4.9,14.8,12.5,17.8c7.4,3,15.6,1.1,21-4.1c0.1,0,0.1,0.1,0.1,0.1c5.9,2.4,12.7-0.5,15-6.5c2.4-5.9-0.5-12.7-6.5-15
				c-1.2-0.5-2.5-0.7-3.8-0.8c3.8-0.7,7.1-3.2,8.7-7.1c2.4-5.9-0.5-12.7-6.5-15c-1.8-0.7-3.7-0.9-5.5-0.7
				c-1.1-6.4-5.2-12.1-11.5-14.9c0,0,0,0,0,0c2.4-5.9-0.5-12.7-6.5-15c-3.1-1.2-6.5-1-9.3,0.3c0.4-0.6,0.7-1.2,1-1.9
				c2.4-5.9-0.5-12.7-6.5-15c-4.9-1.9-10.3-0.3-13.4,3.6c0.3-8.2-4.4-16.1-12.5-19.3c-6.1-2.4-12.8-1.6-18,1.7
				c-1.5-6-5.7-11.1-11.9-13.6c-6.3-2.5-13.1-1.6-18.3,1.9c0.6-5.1-2.2-10.1-7.2-12c-5.9-2.4-12.7,0.5-15,6.5
				c-0.1,0.2-0.1,0.5-0.2,0.8c-1-0.9-2.2-1.7-3.5-2.2c-5.9-2.4-12.7,0.5-15,6.5c0,0.1,0,0.1-0.1,0.2c-1.2-2.8-3.4-5.1-6.4-6.3
				c-4.9-2-10.4-0.3-13.5,3.8c-0.6-0.4-1.3-0.8-2-1c-0.9-0.3-1.7-0.5-2.6-0.7c-0.7-3.7-3.3-7-7.1-8.5c-5.9-2.4-12.7,0.5-15,6.5
				c-0.7,1.7-0.9,3.5-0.7,5.3c-9.4-2.3-19.4,2.7-23,11.9c-0.1,0.3-0.2,0.5-0.3,0.8c-1-0.9-2.2-1.7-3.6-2.3c-5.9-2.4-12.7,0.5-15,6.5
				C470.6,780.2,470.7,783.3,471.8,786z M660,800c0.1-0.1,0.2-0.3,0.3-0.4c0,0.1,0,0.3,0,0.4C660.2,800,660.1,800,660,800z
				 M651.2,836.2c0.1-0.2,0.1-0.4,0.2-0.6c1.3,1,2.8,1.8,4.4,2.5c-0.1,0.2-0.1,0.4-0.2,0.6C654.3,837.7,652.8,836.9,651.2,836.2z"/>
			<path fill="#FCF059" d="M484,772.8l220.9,87.9c1.4,2.9,1.7,6.3,0.5,9.5c-2.4,5.9-9.1,8.8-15,6.5c-1.8-0.7-3.3-1.9-4.5-3.2
				c-5.2,3.9-12.1,5.2-18.6,2.9c0,0,0,0,0,0c-2.4,5.9-9.1,8.8-15,6.5c-3.1-1.2-5.4-3.7-6.5-6.6c-0.1,0.7-0.3,1.4-0.6,2
				c-2.4,5.9-9.1,8.8-15,6.5c-4.9-1.9-7.7-6.8-7.2-11.8c-5.4,6.2-14.3,8.6-22.3,5.4c-6.1-2.4-10.4-7.6-11.9-13.6
				c-5.2,3.3-11.8,4.1-18,1.7c-6.3-2.5-10.6-7.8-12-14c-3.1,4.1-8.5,5.8-13.5,3.8c-5.9-2.4-8.8-9.1-6.5-15c0.1-0.2,0.2-0.5,0.4-0.7
				c-1.4,0-2.7-0.3-4.1-0.8c-5.9-2.4-8.8-9.1-6.5-15c0-0.1,0.1-0.1,0.1-0.2c-2.8,1.2-6,1.4-9,0.2c-4.9-2-7.7-7-7.2-12
				c-0.7-0.1-1.5-0.3-2.2-0.6c-0.9-0.3-1.6-0.8-2.4-1.3c-3.1,2.2-7.2,2.9-11,1.3c-5.9-2.4-8.8-9.1-6.5-15c0.7-1.7,1.8-3.2,3.1-4.3
				C486.6,788.8,482.8,780.8,484,772.8z"/>
			<path fill="#F9E8BB" d="M631.1,873.4c-0.1,0.1-0.2,0.2-0.3,0.3c0-0.2,0.1-0.3,0.1-0.5C631,873.3,631,873.4,631.1,873.4z"/>
			<circle fill="#FCF059" cx="586.7" cy="700.7" r="8.3"/>
			<circle fill="#FCF059" cx="586.8" cy="686.7" r="8.3"/>
			<circle fill="#FCF059" cx="580.8" cy="693.2" r="8.3"/>
			<circle fill="#FCF059" cx="645.7" cy="648.3" r="8.3"/>
			<circle fill="#FCF059" cx="650.9" cy="657.5" r="8.3"/>
			<circle fill="#FCF059" cx="640.2" cy="662.1" r="8.3"/>
		</g>
	</g>
</g>
</svg>
