<?xml version="1.0" encoding="utf-8"?>
<!-- Generator: Adobe Illustrator 18.0.0, SVG Export Plug-In . SVG Version: 6.00 Build 0)  -->
<!DOCTYPE svg PUBLIC "-//W3C//DTD SVG 1.1//EN" "http://www.w3.org/Graphics/SVG/1.1/DTD/svg11.dtd">
<svg version="1.1" id="Layer_1" xmlns="http://www.w3.org/2000/svg" xmlns:xlink="http://www.w3.org/1999/xlink" x="0px" y="0px"
	 viewBox="0 0 720 720" enable-background="new 0 0 720 720" xml:space="preserve">
<g>
	<g opacity="0.3">
		<g>
			<circle fill="#7AAEBC" cx="366.4" cy="347.4" r="181.3"/>
			<g>
				<defs>
					<circle id="SVGID_1_" cx="366.4" cy="347.4" r="181.3"/>
				</defs>
				<clipPath id="SVGID_2_">
					<use xlink:href="#SVGID_1_"  overflow="visible"/>
				</clipPath>
			</g>
			<g>
				<defs>
					<circle id="SVGID_3_" cx="366.4" cy="347.4" r="181.3"/>
				</defs>
				<clipPath id="SVGID_4_">
					<use xlink:href="#SVGID_3_"  overflow="visible"/>
				</clipPath>
			</g>
			<g>
				<defs>
					<circle id="SVGID_5_" cx="366.4" cy="347.4" r="181.3"/>
				</defs>
				<clipPath id="SVGID_6_">
					<use xlink:href="#SVGID_5_"  overflow="visible"/>
				</clipPath>
			</g>
			<g>
				<defs>
					<circle id="SVGID_7_" cx="366.4" cy="347.4" r="181.3"/>
				</defs>
				<clipPath id="SVGID_8_">
					<use xlink:href="#SVGID_7_"  overflow="visible"/>
				</clipPath>
			</g>
			<g opacity="0.2">
				<defs>
					<circle id="SVGID_9_" opacity="0.2" cx="366.4" cy="347.4" r="181.3"/>
				</defs>
				<clipPath id="SVGID_10_">
					<use xlink:href="#SVGID_9_"  overflow="visible"/>
				</clipPath>
			</g>
			<g opacity="0.4">
				<defs>
					<circle id="SVGID_11_" opacity="0.4" cx="366.4" cy="347.4" r="181.3"/>
				</defs>
				<clipPath id="SVGID_12_">
					<use xlink:href="#SVGID_11_"  overflow="visible"/>
				</clipPath>
			</g>
		</g>
		<g opacity="0.4">
			<defs>
				<circle id="SVGID_13_" opacity="0.4" cx="366.4" cy="347.4" r="181.3"/>
			</defs>
			<clipPath id="SVGID_14_">
				<use xlink:href="#SVGID_13_"  overflow="visible"/>
			</clipPath>
		</g>
		<path fill="#B7DDAF" d="M542.4,303.7l-22.3-22.3h-51l-20.5,20.5v35.9l20,32.5V400l-13.1,13.1v18.1l16.9,16.9h18.7l47.6-44.7
			C538.8,403.5,556.8,358.5,542.4,303.7z"/>
		<path fill="#B7DDAF" d="M479.7,205.8h-27.5V249l22.9,22.9h56.2C528,264.5,515.3,234.5,479.7,205.8z"/>
		<path fill="#B7DDAF" d="M339.3,301.6v-20.1l-25-25h-47.8v-30l-17.4-17.4c-4.3,5.5-57.6,49.5-63.1,120.3
			c14.3,29.1,41.3,46.9,41.3,46.9l12.6-12.6v-10.1h6.1v30.8h20.8l24.8-24.8h33.6l39.2-39.2v-18.8H339.3z"/>
	</g>
	<g opacity="0.1">
		<defs>
			<rect id="SVGID_15_" x="371.6" y="235.1" opacity="0.1" width="47.5" height="47.5"/>
		</defs>
		<use xlink:href="#SVGID_15_"  overflow="visible" fill="#AF50B2"/>
		<clipPath id="SVGID_16_">
			<use xlink:href="#SVGID_15_"  overflow="visible"/>
		</clipPath>
		<g transform="matrix(1 0 -3.725290e-09 1 0 0)" clip-path="url(#SVGID_16_)">
			
				<image overflow="visible" width="1899" height="916" id="Solid_x5F_Straight_x5F_B1_7_" xlink:href="582101CF03AF546B.png"  transform="matrix(-0.1479 -3.068009e-03 -4.231321e-03 8.689369e-02 565.3163 217.1257)">
			</image>
		</g>
	</g>
	<path fill="#8BC34A" d="M191.7,386l9-6.1l-2.4-3.5l-9.8,6.7c-3-2.3-6.6-4.1-10.6-4.8c-4-0.8-7.9-0.5-11.6,0.5l-6.7-9.9l-3.5,2.4
		l6.1,9c-7.1,3.3-12.6,9.8-14.2,18.1l-0.7,3.6l50.1,9.8l0.7-3.6C199.7,399.9,197,391.8,191.7,386z M163,397.6
		c-2-0.4-3.3-2.3-2.9-4.3c0.4-2,2.3-3.3,4.3-2.9c2,0.4,3.3,2.3,2.9,4.3C166.9,396.7,164.9,398,163,397.6z M184.5,401.8
		c-2-0.4-3.3-2.3-2.9-4.3c0.4-2,2.3-3.3,4.3-2.9c2,0.4,3.3,2.3,2.9,4.3C188.3,400.9,186.4,402.2,184.5,401.8z"/>
	
		<rect x="143.3" y="406.5" transform="matrix(0.9816 0.1912 -0.1912 0.9816 84.3071 -24.4421)" fill="#8BC34A" width="51" height="36.5"/>
	
		<rect x="146.5" y="406.8" transform="matrix(0.9816 0.1912 -0.1912 0.9816 81.2863 -25.3386)" fill="#2D3444" width="51" height="3.6"/>
	<circle fill="#2D3444" cx="185.6" cy="398.3" r="4.1"/>
	<circle fill="#2D3444" cx="163.1" cy="393.9" r="4.1"/>
	<g opacity="0.1">
		<defs>
			<rect id="SVGID_17_" x="431.5" y="436.2" opacity="0.1" width="47.5" height="47.5"/>
		</defs>
		<clipPath id="SVGID_18_">
			<use xlink:href="#SVGID_17_"  overflow="visible"/>
		</clipPath>
		<g transform="matrix(1 0 3.725290e-09 1 6.103516e-05 0)" clip-path="url(#SVGID_18_)">
			
				<image overflow="visible" width="1899" height="916" id="Solid_x5F_Straight_x5F_B1_5_" xlink:href="582101CF03AF5469.png"  transform="matrix(-0.1479 3.068009e-03 -4.231321e-03 -8.689369e-02 589.3738 496.828)">
			</image>
		</g>
	</g>
	<g>
		<rect x="160.9" y="415" fill="#BC7762" width="58.3" height="71.3"/>
		<rect x="125.2" y="415" fill="#D68B6E" width="56.2" height="71.3"/>
		<polygon fill="#D89E8D" points="181.9,415 144.4,452.5 87.5,452.8 125.3,415 		"/>
		<g opacity="0.2">
			<defs>
				<rect id="SVGID_19_" x="125.2" y="415" opacity="0.2" width="93.9" height="71.3"/>
			</defs>
			<clipPath id="SVGID_20_">
				<use xlink:href="#SVGID_19_"  overflow="visible"/>
			</clipPath>
		</g>
		<polygon opacity="0.2" points="181.9,415 155.8,460.9 125.2,460.9 125.2,452.6 144.4,452.5 		"/>
		<polygon opacity="0.4" points="181.4,415 211.2,460.9 219.2,460.9 219.2,452.8 		"/>
		<g>
			<defs>
				<polygon id="SVGID_21_" points="181.4,415 219,452.5 257,452.8 219.2,415 				"/>
			</defs>
			<use xlink:href="#SVGID_21_"  overflow="visible" fill="#D89E8D"/>
			<clipPath id="SVGID_22_">
				<use xlink:href="#SVGID_21_"  overflow="visible"/>
			</clipPath>
		</g>
	</g>
	<g opacity="0.1">
		<defs>
			<rect id="SVGID_23_" x="419.1" y="140.2" opacity="0.1" width="47.5" height="47.5"/>
		</defs>
		<clipPath id="SVGID_24_">
			<use xlink:href="#SVGID_23_"  overflow="visible"/>
		</clipPath>
		<g transform="matrix(1 0 -3.725290e-09 1 -3.051758e-05 0)" clip-path="url(#SVGID_24_)">
			
				<image overflow="visible" width="1899" height="916" id="Solid_x5F_Straight_x5F_B1_4_" xlink:href="582101CF03AF546F.png"  transform="matrix(0.1479 3.068009e-03 4.231321e-03 -8.689369e-02 335.837 197.1283)">
			</image>
		</g>
	</g>
	<g opacity="0.1">
		<defs>
			<rect id="SVGID_25_" x="371.5" y="140.9" opacity="0.1" width="47.5" height="47.5"/>
		</defs>
		<clipPath id="SVGID_26_">
			<use xlink:href="#SVGID_25_"  overflow="visible"/>
		</clipPath>
		<g transform="matrix(1 0 -3.725290e-09 1 0 -1.525879e-05)" clip-path="url(#SVGID_26_)">
			
				<image overflow="visible" width="1899" height="916" id="Solid_x5F_Straight_x5F_B1_3_" xlink:href="582101CF03AF5468.png"  transform="matrix(0.1479 3.068009e-03 4.231321e-03 -8.689369e-02 288.2514 197.8895)">
			</image>
		</g>
	</g>
	<g>
		
			<rect x="154.6" y="222.8" transform="matrix(0.9202 -0.3913 0.3913 0.9202 -82.3208 100.7701)" fill="#BBE0EF" width="102.9" height="59.1"/>
		
			<rect x="154.5" y="241.1" transform="matrix(0.9202 -0.3913 0.3913 0.9202 -82.3 100.7368)" fill="#343A3F" width="103" height="22.4"/>
		<g opacity="0.1">
			<defs>
				
					<rect id="SVGID_27_" x="154.6" y="222.8" transform="matrix(0.9202 -0.3913 0.3913 0.9202 -82.3208 100.7701)" opacity="0.1" width="102.9" height="59.1"/>
			</defs>
			<clipPath id="SVGID_28_">
				<use xlink:href="#SVGID_27_"  overflow="visible"/>
			</clipPath>
		</g>
		<circle fill="#ADCEDB" cx="206.1" cy="252.3" r="23.3"/>
		<circle fill="#343A3F" cx="206.1" cy="252.3" r="15.9"/>
		
			<rect x="225" y="213.5" transform="matrix(0.9202 -0.3913 0.3913 0.9202 -66.5475 108.7385)" fill="#FFFFFF" width="16.9" height="8.3"/>
		<polyline fill="#343A3F" points="169.2,236 166.8,230.4 153.3,236.1 155.8,242 		"/>
		<circle fill="#181D21" cx="206.1" cy="252.3" r="10.8"/>
		<circle fill="#FFFFFF" cx="207.9" cy="247.5" r="3.6"/>
		<circle fill="#FFFFFF" cx="212.8" cy="252.5" r="1.9"/>
		<g opacity="0.3">
			<defs>
				
					<rect id="SVGID_29_" x="154.6" y="222.8" transform="matrix(0.9202 -0.3913 0.3913 0.9202 -82.3208 100.7701)" opacity="0.3" width="102.9" height="59.1"/>
			</defs>
			<clipPath id="SVGID_30_">
				<use xlink:href="#SVGID_29_"  overflow="visible"/>
			</clipPath>
		</g>
		<g opacity="0.3">
			<defs>
				<circle id="SVGID_31_" opacity="0.3" cx="206.1" cy="252.3" r="23.3"/>
			</defs>
			<clipPath id="SVGID_32_">
				<use xlink:href="#SVGID_31_"  overflow="visible"/>
			</clipPath>
		</g>
		<path opacity="0.8" fill="#FEFFDE" d="M248.6,253.2c-7.6-18-31.5-27.6-49.4-19.9c18-7.6,27.6-31.5,19.9-49.4
			c7.6,18,31.5,27.6,49.4,19.9C250.6,211.4,241,235.2,248.6,253.2z"/>
		<g opacity="0.4">
			<defs>
				<polyline id="SVGID_33_" opacity="0.4" points="169.1,235.8 166.3,229.2 152.8,234.9 155.7,241.9 				"/>
			</defs>
			<clipPath id="SVGID_34_">
				<use xlink:href="#SVGID_33_"  overflow="visible"/>
			</clipPath>
		</g>
		<circle opacity="0.4" fill="#FEFFDE" cx="233.9" cy="218.5" r="26.6"/>
	</g>
	<path opacity="0.4" fill="#DCF3FF" d="M442.1,381.1c63.6-65.4,68-142.4,68-142.4c-16.6,51.9-44.4,89.4-74.5,116.5
		c-0.4,0-0.9,0.1-1.3,0.2c-2.3,0.6-4,2.2-4.9,4.3c-1.3-0.5-2.8-0.6-4.3-0.3c-3.3,0.8-5.4,3.8-5.4,7c-1.8-1.5-4.3-2.2-6.7-1.5
		c-3.4,0.9-5.6,3.9-5.7,7.2c-2.6-0.9-5.5-1.1-8.4-0.3c-4.9,1.3-8.6,4.9-10.2,9.3c-4.4-3.6-10.3-5.2-16.2-3.7
		c-7.4,1.9-12.6,8-13.6,15.2c-2.2-0.6-4.6-0.7-7-0.1c-7.2,1.8-11.6,9.2-9.7,16.4c0.1,0.5,0.3,1,0.5,1.5c-0.2,0.1-0.4,0.1-0.6,0.2
		c-3.4-2.6-7.7-4.2-12.3-4.2c-5.7,0-10.9,2.4-14.6,6.2c-1.5-0.2-3-0.3-4.5-0.3c-18.3,0-33.1,14.8-33.1,33.1c0,1.6,0.2,3.2,0.4,4.7
		c-15.2,5.3-26.1,19.7-26.1,36.7c0,21.5,17.4,38.9,38.9,38.9c20.4,0,37-15.7,38.7-35.6c5.8,11,17.4,18.6,30.8,18.6
		c19.3,0,34.9-15.6,34.9-34.9c0-6.6-1.9-12.7-5-18c1-2.7,1.5-5.6,1.5-8.6c0-3.6-0.7-6.9-2-10c1.3,0,2.6-0.2,3.9-0.5
		c7.1-1.8,12.1-7.5,13.4-14.2c3.3,2,7.3,2.7,11.3,1.7c7.9-2,12.6-10,10.6-17.9c-0.2-0.9-0.6-1.8-1-2.6c0.3,0,0.6-0.1,0.9-0.1
		c4.1-1,6.5-5.2,5.5-9.2c0,0,0,0,0-0.1c1.6,0.8,3.4,1.1,5.3,0.6c4.1-1,6.5-5.2,5.5-9.2C444.6,383.6,443.5,382.1,442.1,381.1z"/>
	<rect x="69.1" y="531.3" opacity="0.3" fill="#212121" width="254.5" height="3.7"/>
	<rect x="384.2" y="531.3" opacity="0.3" fill="#212121" width="266.1" height="3.7"/>
	<g>
		<rect x="371.6" y="235.1" fill="#4CDAFC" width="47.5" height="47.5"/>
		<rect x="378.9" y="242.4" fill="#71DEFF" width="32.8" height="32.8"/>
		<polygon fill="#4CDAFC" points="411.7,242.4 419.1,235.1 419.1,282.6 411.7,275.2 		"/>
		<polygon fill="#C0EEF9" points="411.7,242.4 419.1,235.1 371.6,235.1 378.9,242.4 		"/>
		<polygon fill="#2DC6EA" points="411.7,275.2 419.1,282.6 371.6,282.6 378.9,275.2 		"/>
	</g>
	<g>
		<rect x="371.6" y="187.5" fill="#4CDAFC" width="47.5" height="47.5"/>
		<rect x="378.9" y="194.9" fill="#71DEFF" width="32.8" height="32.8"/>
		<polygon fill="#4CDAFC" points="411.7,194.9 419.1,187.5 419.1,235.1 411.7,227.7 		"/>
		<polygon fill="#C0EEF9" points="411.7,194.9 419.1,187.5 371.6,187.5 378.9,194.9 		"/>
		<polygon fill="#2DC6EA" points="411.7,227.7 419.1,235.1 371.6,235.1 378.9,227.7 		"/>
	</g>
	<g>
		<rect x="371.6" y="140" fill="#4CDAFC" width="47.5" height="47.5"/>
		<rect x="378.9" y="147.4" fill="#71DEFF" width="32.8" height="32.8"/>
		<polygon fill="#4CDAFC" points="411.7,147.4 419.1,140 419.1,187.5 411.7,180.2 		"/>
		<polygon fill="#C0EEF9" points="411.7,147.4 419.1,140 371.6,140 378.9,147.4 		"/>
		<polygon fill="#2DC6EA" points="411.7,180.2 419.1,187.5 371.6,187.5 378.9,180.2 		"/>
	</g>
	<g>
		<rect x="419.1" y="140" fill="#4CDAFC" width="47.5" height="47.5"/>
		<rect x="426.4" y="147.4" fill="#71DEFF" width="32.8" height="32.8"/>
		<polygon fill="#4CDAFC" points="459.2,147.4 466.6,140 466.6,187.5 459.2,180.2 		"/>
		<polygon fill="#C0EEF9" points="459.2,147.4 466.6,140 419.1,140 426.4,147.4 		"/>
		<polygon fill="#2DC6EA" points="459.2,180.2 466.6,187.5 419.1,187.5 426.4,180.2 		"/>
	</g>
	<g opacity="0.6">
		<defs>
			<path id="SVGID_35_" opacity="0.6" d="M510,238.7c-16.6,51.9-44.4,89.4-74.5,116.5c-0.4,0-0.9,0.1-1.3,0.2
				c-2.3,0.6-4,2.2-4.9,4.3c-1.3-0.5-2.8-0.6-4.3-0.3c-3.3,0.8-5.4,3.8-5.4,7c-1.8-1.5-4.3-2.2-6.7-1.5c-3.4,0.9-5.6,3.9-5.7,7.2
				c-2.6-0.9-5.5-1.1-8.4-0.3c-4.9,1.3-8.6,4.9-10.2,9.3c-4.4-3.6-10.3-5.2-16.2-3.7c-7.4,1.9-12.6,8-13.6,15.2
				c-2.2-0.6-4.6-0.7-7-0.1c-7.2,1.8-11.6,9.2-9.7,16.4c0.1,0.5,0.3,1,0.5,1.5c-26.7,9.7-45.3,12.2-45.3,12.2l6.5,34.8
				c19.9-5.1,37.8-11.3,54-18.5c3.3,3.2,8,4.7,12.8,3.5c4.2-1.1,7.5-4,9.1-7.8c4,2.4,9,3.3,13.9,2c7.1-1.8,12.1-7.5,13.4-14.2
				c3.3,2,7.3,2.7,11.3,1.7c7.9-2,12.6-10,10.6-17.9c-0.2-0.9-0.6-1.8-1-2.6c0.3,0,0.6-0.1,0.9-0.1c4.1-1,6.5-5.2,5.5-9.2
				c0,0,0,0,0-0.1c1.6,0.8,3.4,1.1,5.3,0.6c4.1-1,6.5-5.2,5.5-9.2c-0.5-1.8-1.6-3.3-3-4.3C505.7,315.8,510,238.7,510,238.7z"/>
		</defs>
		<clipPath id="SVGID_36_">
			<use xlink:href="#SVGID_35_"  overflow="visible"/>
		</clipPath>
	</g>
	<g>
		<path fill="#1C74A0" d="M235.4,526.4h-14l-23.8-28.1c0,0,9-17.2,33.2-8.9C230.8,489.5,253.6,511.8,235.4,526.4z"/>
		<polygon fill="#846340" points="281.5,494.2 281.5,482.3 287.5,482.3 287.5,494.2 318.1,494.2 318.1,500.1 244.3,500.1 
			244.3,494.2 		"/>
		<path fill="#1E1E1E" d="M186.6,509.4c0.7-2.2,1.8-4.2,3.2-5.9c3.2-3.9,8.1-6.4,13.5-6.4h15.6l-3.6,4.8c1.2,1.2,2.3,2.5,3.2,4
			c0,0,0,0,0,0c0.3,0.5,0.5,0.9,0.7,1.4c0,0,0,0.1,0.1,0.1c0.2,0.5,0.4,0.9,0.5,1.4c0,0.1,0.1,0.2,0.1,0.3c0.1,0.4,0.3,0.9,0.4,1.4
			c0,0.1,0.1,0.2,0.1,0.4c0.1,0.4,0.2,0.9,0.2,1.4c0,0.1,0,0.3,0.1,0.4c0.1,0.6,0.1,1.2,0.1,1.8s0,1.2-0.1,1.8c0,0.1,0,0.3-0.1,0.4
			c-0.1,0.5-0.1,0.9-0.2,1.4c0,0.1-0.1,0.2-0.1,0.4c-0.1,0.5-0.2,0.9-0.4,1.4c0,0.1-0.1,0.2-0.1,0.3c-0.2,0.5-0.3,0.9-0.5,1.4
			c0,0,0,0.1-0.1,0.1c-0.2,0.5-0.5,1-0.7,1.4c0,0,0,0,0,0c-0.8,1.5-1.9,2.9-3.2,4l3.6,4.8h-15.6c-6,0-11.3-3.1-14.5-7.7
			c-1.6-2.3-2.6-5-2.9-8c-0.1-0.6-0.1-1.2-0.1-1.8C185.8,512.8,186.1,511.1,186.6,509.4z"/>
		<g opacity="0.4">
			<defs>
				<polygon id="SVGID_37_" opacity="0.4" points="281.5,494.2 281.5,482.3 287.5,482.3 287.5,494.2 318.1,494.2 318.1,500.1 
					244.3,500.1 244.3,494.2 				"/>
			</defs>
			<clipPath id="SVGID_38_">
				<use xlink:href="#SVGID_37_"  overflow="visible"/>
			</clipPath>
			<g transform="matrix(1 0 0 1 0 -6.103516e-05)" clip-path="url(#SVGID_38_)">
				
					<image overflow="visible" width="1899" height="916" id="Solid_x5F_Straight_x5F_B1_2_" xlink:href="582101CF03AF5466.png"  transform="matrix(-0.1063 4.149068e-03 -3.973610e-03 -4.657213e-02 354.2304 517.3831)">
				</image>
			</g>
		</g>
		<path fill="#1C74A0" d="M310.4,526.4h-14l-23.8-28.1c0,0,9-17.2,33.2-8.9C305.9,489.5,328.6,511.8,310.4,526.4z"/>
		<path fill="#1E1E1E" d="M112,509.4c0.7-2.2,1.8-4.2,3.2-5.9c3.2-3.9,8.1-6.4,13.5-6.4h15.6l-3.6,4.8c1.2,1.2,2.3,2.5,3.2,4
			c0,0,0,0,0,0c0.3,0.5,0.5,0.9,0.7,1.4c0,0,0,0.1,0.1,0.1c0.2,0.5,0.4,0.9,0.5,1.4c0,0.1,0.1,0.2,0.1,0.3c0.1,0.4,0.3,0.9,0.4,1.4
			c0,0.1,0.1,0.2,0.1,0.4c0.1,0.4,0.2,0.9,0.2,1.4c0,0.1,0,0.3,0.1,0.4c0.1,0.6,0.1,1.2,0.1,1.8s0,1.2-0.1,1.8c0,0.1,0,0.3-0.1,0.4
			c-0.1,0.5-0.1,0.9-0.2,1.4c0,0.1-0.1,0.2-0.1,0.4c-0.1,0.5-0.2,0.9-0.4,1.4c0,0.1-0.1,0.2-0.1,0.3c-0.2,0.5-0.3,0.9-0.5,1.4
			c0,0,0,0.1-0.1,0.1c-0.2,0.5-0.5,1-0.7,1.4c0,0,0,0,0,0c-0.8,1.5-1.9,2.9-3.2,4l3.6,4.8h-15.6c-6,0-11.3-3.1-14.5-7.7
			c-1.6-2.3-2.6-5-2.9-8c-0.1-0.6-0.1-1.2-0.1-1.8C111.2,512.8,111.5,511.1,112,509.4z"/>
		<circle fill="#1E1E1E" cx="143.7" cy="514.6" r="17.5"/>
		<path fill="#1E1E1E" d="M260.9,509.4c0.7-2.2,1.8-4.2,3.2-5.9c3.2-3.9,8.1-6.4,13.5-6.4h15.6l-3.6,4.8c1.2,1.2,2.3,2.5,3.2,4
			c0,0,0,0,0,0c0.3,0.5,0.5,0.9,0.7,1.4c0,0,0,0.1,0.1,0.1c0.2,0.5,0.4,0.9,0.5,1.4c0,0.1,0.1,0.2,0.1,0.3c0.1,0.4,0.3,0.9,0.4,1.4
			c0,0.1,0.1,0.2,0.1,0.4c0.1,0.4,0.2,0.9,0.2,1.4c0,0.1,0,0.3,0.1,0.4c0.1,0.6,0.1,1.2,0.1,1.8s0,1.2-0.1,1.8c0,0.1,0,0.3-0.1,0.4
			c-0.1,0.5-0.1,0.9-0.2,1.4c0,0.1-0.1,0.2-0.1,0.4c-0.1,0.5-0.2,0.9-0.4,1.4c0,0.1-0.1,0.2-0.1,0.3c-0.2,0.5-0.3,0.9-0.5,1.4
			c0,0,0,0.1-0.1,0.1c-0.2,0.5-0.5,1-0.7,1.4c0,0,0,0,0,0c-0.8,1.5-1.9,2.9-3.2,4l3.6,4.8h-15.6c-6,0-11.3-3.1-14.5-7.7
			c-1.6-2.3-2.6-5-2.9-8c-0.1-0.6-0.1-1.2-0.1-1.8C260.1,512.8,260.4,511.1,260.9,509.4z"/>
		<circle fill="#2A323D" cx="292.7" cy="514.6" r="17.5"/>
		<circle fill="#7F8EA0" cx="292.7" cy="514.6" r="8.9"/>
		<rect x="69.9" y="483.5" fill="#096589" width="93.9" height="29.6"/>
		<path fill="#2CA5FF" d="M208.4,483.7l27.7-28.7H280l25.5,28.7h9.3l10-7.9v37.3h-11.1c-0.7-10.9-9.7-19.6-20.8-19.6
			c-11.1,0-20.1,8.6-20.8,19.6h-32.6c-0.8-10.8-9.8-19.4-20.8-19.4c-11,0-20,8.5-20.8,19.4h-34.2v-29.4H208.4z"/>
		<polygon fill="#1E1E1E" points="236.1,455 174.7,455 142.9,483.5 208.4,483.7 		"/>
		<rect x="72.1" y="486.2" fill="#1E1E1E" width="88.6" height="24.3"/>
		<polygon fill="#0B83B2" points="324.7,475.8 298.5,475.8 305.5,483.7 314.7,483.7 		"/>
		<path fill="#2D2D2D" d="M198,513.1c0,0-0.4,7.9,4.2,13.3H69.9v-13.3H198z"/>
		<g opacity="0.2">
			<defs>
				<rect id="SVGID_39_" x="69.9" y="483.5" opacity="0.2" width="93.9" height="29.6"/>
			</defs>
			<clipPath id="SVGID_40_">
				<use xlink:href="#SVGID_39_"  overflow="visible"/>
			</clipPath>
		</g>
		<path fill="#2D2D2D" d="M272.1,513.1c0,0-0.7,7.6,3.1,13.3h-39.8c0,0,4.6-3.9,4.1-13.3H272.1z"/>
		<circle fill="#F4EDD0" cx="151.6" cy="498.3" r="5.4"/>
		<g>
			<defs>
				<path id="SVGID_41_" d="M208.4,483.7l27.7-28.7h42.8l26.5,28.7h9.3l10-7.9v37.3h-11.1c-0.7-10.9-9.7-19.6-20.8-19.6
					c-11.1,0-20.1,8.6-20.8,19.6h-32.6c-0.8-10.8-9.8-19.4-20.8-19.4c-11,0-20,8.5-20.8,19.4h-34.2v-29.4H208.4z"/>
			</defs>
			<clipPath id="SVGID_42_">
				<use xlink:href="#SVGID_41_"  overflow="visible"/>
			</clipPath>
			<rect x="156.7" y="500.6" clip-path="url(#SVGID_42_)" fill="#FFFFFF" width="174.3" height="6.9"/>
			<rect x="156.7" y="495.4" clip-path="url(#SVGID_42_)" fill="#FFFFFF" width="174.3" height="2.4"/>
		</g>
		<path fill="#2D2D2D" d="M313.7,513.1c0,0,0.9,8.3-4.3,13.3h15.4v-13.3H313.7z"/>
		<g opacity="0.3">
			<defs>
				<circle id="SVGID_43_" opacity="0.3" cx="292.3" cy="514.6" r="8.9"/>
			</defs>
			<clipPath id="SVGID_44_">
				<use xlink:href="#SVGID_43_"  overflow="visible"/>
			</clipPath>
		</g>
		<rect x="69.9" y="513.1" fill="#1E1E1E" width="93.9" height="13.3"/>
		<path fill="#444444" d="M103.9,507.2h23.8c1.9,0,3.4-1.5,3.4-3.4v-11c0-1.9-1.5-3.4-3.4-3.4h-23.8c-1.9,0-3.4,1.5-3.4,3.4v11
			C100.5,505.7,102,507.2,103.9,507.2z"/>
		<circle fill="#FFFFFF" cx="151.6" cy="498.3" r="3.2"/>
		<path opacity="0.3" fill="#FFFFFF" d="M208.4,483.7L208.4,483.7c-1.2-11.4-11-22.8-33.7-28.7h61.4c0,0-27.7,28.7-27.3,28.3
			L208.4,483.7z"/>
		<polygon fill="#1E1E1E" points="269.6,484.1 214.7,484.1 238.3,458.8 269.6,458.8 		"/>
		<polygon fill="#1E1E1E" points="273.6,484.1 273.6,458.8 277.6,458.8 300.1,484.1 		"/>
		<g opacity="0.2">
			<defs>
				<path id="SVGID_45_" opacity="0.2" d="M208.4,483.7l27.7-28.7H280l25.5,28.7h9.3l10-7.9v37.3h-11.1
					c-0.7-10.9-9.7-19.6-20.8-19.6c-11.1,0-20.1,8.6-20.8,19.6h-32.6c-0.8-10.8-9.8-19.4-20.8-19.4c-11,0-20,8.5-20.8,19.4h-34.2
					v-29.4H208.4z"/>
			</defs>
			<clipPath id="SVGID_46_">
				<use xlink:href="#SVGID_45_"  overflow="visible"/>
			</clipPath>
		</g>
		<circle fill="#2A323D" cx="219" cy="514.6" r="17.5"/>
		<circle fill="#7F8EA0" cx="219" cy="514.6" r="8.9"/>
		<g opacity="0.3">
			<defs>
				<circle id="SVGID_47_" opacity="0.3" cx="219" cy="514.6" r="8.9"/>
			</defs>
			<clipPath id="SVGID_48_">
				<use xlink:href="#SVGID_47_"  overflow="visible"/>
			</clipPath>
		</g>
		<circle fill="#F4EDD0" cx="139.1" cy="498.3" r="5.4"/>
		<circle fill="#FFFFFF" cx="139.1" cy="498.3" r="3.2"/>
		<circle fill="#F4EDD0" cx="92.8" cy="498.3" r="5.4"/>
		<circle fill="#FFFFFF" cx="92.8" cy="498.3" r="3.2"/>
		<circle fill="#F4EDD0" cx="80.3" cy="498.3" r="5.4"/>
		<circle fill="#FFFFFF" cx="80.3" cy="498.3" r="3.2"/>
	</g>
	<polygon fill="#F4C17D" points="471.7,443.6 479,436.2 431.5,436.2 438.9,443.6 	"/>
	<rect x="431.5" y="483.7" fill="#DB953A" width="47.5" height="47.5"/>
	<rect x="438.9" y="491.1" fill="#FAAF40" width="32.8" height="32.8"/>
	<polygon fill="#DB953A" points="471.7,491.1 479,483.7 479,531.2 471.7,523.9 	"/>
	<polygon fill="#DB953A" points="438.9,491.1 431.5,483.7 431.5,531.2 438.9,523.9 	"/>
	<polygon fill="#F4C17D" points="471.7,491.1 479,483.7 431.5,483.7 438.9,491.1 	"/>
	<rect x="479" y="483.7" fill="#DB953A" width="47.5" height="47.5"/>
	<rect x="486.4" y="491.1" fill="#FAAF40" width="32.8" height="32.8"/>
	<polygon fill="#F4C17D" points="519.2,491.1 526.6,483.7 479,483.7 486.4,491.1 	"/>
	<rect x="431.5" y="436.2" fill="#DB953A" width="47.5" height="47.5"/>
	<rect x="438.9" y="443.6" fill="#FAAF40" width="32.8" height="32.8"/>
	<polygon fill="#DB953A" points="471.7,443.6 479,436.2 479,483.7 471.7,476.3 	"/>
	<polygon fill="#B77A32" points="471.7,476.3 479,483.7 431.5,483.7 438.9,476.3 	"/>
	<rect x="431.5" y="483.7" fill="#452991" width="47.5" height="47.5"/>
	<rect x="438.9" y="491.1" fill="#6430B7" width="32.8" height="32.8"/>
	<polygon fill="none" points="471.7,491.1 479,483.7 479,531.2 471.7,523.9 	"/>
	<polygon fill="#916FD1" points="471.7,491.1 479,483.7 431.5,483.7 438.9,491.1 	"/>
	<rect x="479" y="483.7" fill="#452991" width="47.5" height="47.5"/>
	<polygon fill="#291C59" points="471.7,523.9 479,531.2 431.5,531.2 438.9,523.9 	"/>
	<rect x="384" y="483.7" fill="#452991" width="47.5" height="47.5"/>
	<rect x="391.4" y="491.1" fill="#6430B7" width="32.8" height="32.8"/>
	<polygon fill="#916FD1" points="424.2,491.1 431.5,483.7 384,483.7 391.4,491.1 	"/>
	<polygon fill="#291C59" points="424.2,523.9 431.5,531.2 384,531.2 391.4,523.9 	"/>
	<polygon fill="#291C59" points="519.2,523.9 526.6,531.2 479,531.2 486.4,523.9 	"/>
	<rect x="486.4" y="491.1" fill="#6430B7" width="32.8" height="32.8"/>
	<polygon fill="#916FD1" points="519.2,491.1 526.6,483.7 479,483.7 486.4,491.1 	"/>
	<rect x="431.5" y="436.2" fill="#452991" width="47.5" height="47.5"/>
	<rect x="438.9" y="443.6" fill="#6430B7" width="32.8" height="32.8"/>
	<polygon fill="#452991" points="471.7,443.6 479,436.2 479,483.7 471.7,476.3 	"/>
	<polygon fill="#291C59" points="471.7,476.3 479,483.7 431.5,483.7 438.9,476.3 	"/>
	<polygon fill="#916FD1" points="471.7,443.6 479,436.2 431.5,436.2 438.9,443.6 	"/>
	<rect x="526.6" y="483.7" fill="#0B3C6D" width="47.5" height="47.5"/>
	<rect x="533.9" y="491.1" fill="#124077" width="32.8" height="32.8"/>
	<polygon fill="#0B3C6D" points="566.7,491.1 574.1,483.7 574.1,531.2 566.7,523.9 	"/>
	<polygon fill="#1C5EA0" points="566.7,491.1 574.1,483.7 526.6,483.7 533.9,491.1 	"/>
	<polygon fill="#0E3459" points="566.7,523.9 574.1,531.2 526.6,531.2 533.9,523.9 	"/>
	<rect x="526.6" y="436.3" fill="#0B3C6D" width="47.5" height="47.5"/>
	<rect x="533.9" y="443.6" fill="#124077" width="32.8" height="32.8"/>
	<polygon fill="#0B3C6D" points="566.7,443.6 574.1,436.3 574.1,483.8 566.7,476.4 	"/>
	<polygon fill="#1C5EA0" points="566.7,443.6 574.1,436.3 526.6,436.3 533.9,443.6 	"/>
	<polygon fill="#0E3459" points="566.7,476.4 574.1,483.8 526.6,483.8 533.9,476.4 	"/>
	<rect x="479" y="436.3" fill="#0B3C6D" width="47.5" height="47.5"/>
	<rect x="486.4" y="443.6" fill="#124077" width="32.8" height="32.8"/>
	<polygon fill="#0B3C6D" points="519.2,443.6 526.6,436.3 526.6,483.8 519.2,476.4 	"/>
	<polygon fill="#1C5EA0" points="519.2,443.6 526.6,436.3 479,436.3 486.4,443.6 	"/>
	<polygon fill="#0E3459" points="519.2,476.4 526.6,483.8 479,483.8 486.4,476.4 	"/>
	<rect x="479" y="388.8" fill="#0B3C6D" width="47.5" height="47.5"/>
	<rect x="486.4" y="396.1" fill="#124077" width="32.8" height="32.8"/>
	<polygon fill="#0B3C6D" points="519.2,396.1 526.6,388.8 526.6,436.3 519.2,428.9 	"/>
	<polygon fill="#1C5EA0" points="519.2,396.1 526.6,388.8 479,388.8 486.4,396.1 	"/>
	<polygon fill="#0E3459" points="519.2,428.9 526.6,436.3 479,436.3 486.4,428.9 	"/>
	<g opacity="0.1">
		<defs>
			<rect id="SVGID_49_" x="526.6" y="483.6" opacity="0.1" width="47.5" height="47.5"/>
		</defs>
		<clipPath id="SVGID_50_">
			<use xlink:href="#SVGID_49_"  overflow="visible"/>
		</clipPath>
	</g>
	<g opacity="0.1">
		<defs>
			<rect id="SVGID_51_" x="479" y="388.8" opacity="0.1" width="47.5" height="47.5"/>
		</defs>
		<clipPath id="SVGID_52_">
			<use xlink:href="#SVGID_51_"  overflow="visible"/>
		</clipPath>
	</g>
	<g opacity="0.1">
		<defs>
			<rect id="SVGID_53_" x="526.6" y="436.3" opacity="0.1" width="47.5" height="47.5"/>
		</defs>
		<clipPath id="SVGID_54_">
			<use xlink:href="#SVGID_53_"  overflow="visible"/>
		</clipPath>
	</g>
	<g>
		<path fill="#35AF77" d="M566.7,473.3c-6.3-4.5-16.1-1.6-16.1-1.6s0.3,10.3,6.6,14.8c6.3,4.5,16.1,1.6,16.1,1.6
			S573,477.8,566.7,473.3z"/>
		<g opacity="0.2">
			<defs>
				<path id="SVGID_55_" opacity="0.2" d="M566.8,472.9c6.3,4.5,6.6,14.8,6.6,14.8s-9.9,3-16.1-1.6c-6.3-4.5-6.6-14.8-6.6-14.8
					S560.6,468.4,566.8,472.9z"/>
			</defs>
			<clipPath id="SVGID_56_">
				<use xlink:href="#SVGID_55_"  overflow="visible"/>
			</clipPath>
		</g>
		<g>
			<path fill="#35AF77" d="M571.7,518.4c-0.1-0.6-6.8-55.5,32.4-67.5l1,3.3c-36.4,11.1-30,63.2-29.9,63.7L571.7,518.4z"/>
		</g>
		<path fill="#FFE66A" d="M651.7,440.7c-0.8-2.9-4.9-4.5-10.8-4.8c1.2-5.8,0.6-10.2-2-11.7s-6.7,0.3-11,4.3
			c-3.3-4.9-6.8-7.6-9.7-6.8c-2.9,0.8-4.5,4.9-4.8,10.8c-5.8-1.2-10.2-0.6-11.7,2c-1.5,2.6,0.3,6.7,4.3,11c-4.9,3.3-7.6,6.8-6.8,9.7
			c0.8,2.9,4.9,4.5,10.8,4.8c-1.2,5.8-0.6,10.2,2,11.7c2.6,1.5,6.7-0.3,11-4.3c3.3,4.9,6.8,7.6,9.7,6.8c2.9-0.8,4.5-4.9,4.8-10.8
			c5.8,1.2,10.2,0.6,11.7-2c1.5-2.6-0.3-6.7-4.3-11C649.8,447.1,652.5,443.5,651.7,440.7z"/>
		<circle fill="#FF3F8F" cx="625.3" cy="447.2" r="8.3"/>
		<g opacity="0.6">
			<defs>
				<path id="SVGID_57_" opacity="0.6" d="M599.8,455.2c0.8,2.9,4.9,4.5,10.8,4.8c-1.2,5.8-0.6,10.2,2,11.7s6.7-0.3,11-4.3
					c3.3,4.9,6.8,7.6,9.7,6.8c2.9-0.8,4.5-4.9,4.8-10.8c5.8,1.2,10.2,0.6,11.7-2c1.5-2.6-0.3-6.7-4.3-11c4.9-3.3,7.6-6.8,6.8-9.7
					c-0.8-2.9-4.9-4.5-10.8-4.8c1.2-5.8,0.6-10.2-2-11.7c-2.6-1.5-6.7,0.3-11,4.3c-3.3-4.9-6.8-7.6-9.7-6.8s-4.5,4.9-4.8,10.8
					c-5.8-1.2-10.2-0.6-11.7,2c-1.5,2.6,0.3,6.7,4.3,11C601.7,448.8,599,452.3,599.8,455.2z"/>
			</defs>
			<clipPath id="SVGID_58_">
				<use xlink:href="#SVGID_57_"  overflow="visible"/>
			</clipPath>
		</g>
		<g opacity="0.6">
			<defs>
				<path id="SVGID_59_" opacity="0.6" d="M651.7,440.6c-0.8-2.9-4.9-4.5-10.8-4.8c1.2-5.8,0.6-10.2-2-11.7s-6.7,0.3-11,4.3
					c-3.3-4.9-6.8-7.6-9.7-6.8c-2.9,0.8-4.5,4.9-4.8,10.8c-5.8-1.2-10.2-0.6-11.7,2c-1.5,2.6,0.3,6.7,4.3,11
					c-4.9,3.3-7.6,6.8-6.8,9.7c0.8,2.9,4.9,4.5,10.8,4.8c-1.2,5.8-0.6,10.2,2,11.7c2.6,1.5,6.7-0.3,11-4.3c3.3,4.9,6.8,7.6,9.7,6.8
					s4.5-4.9,4.8-10.8c5.8,1.2,10.2,0.6,11.7-2c1.5-2.6-0.3-6.7-4.3-11C649.8,447,652.5,443.5,651.7,440.6z"/>
			</defs>
			<clipPath id="SVGID_60_">
				<use xlink:href="#SVGID_59_"  overflow="visible"/>
			</clipPath>
		</g>
		<path fill="#895E51" d="M594.4,531.3h-42.2c0-8.3,9.4-15,21.1-15S594.4,523,594.4,531.3z"/>
		<path fill="#35AF77" d="M590.9,481.8c-7.7-0.8-14.8,6.7-14.8,6.7s5.4,8.8,13.1,9.5c7.7,0.8,14.8-6.7,14.8-6.7
			S598.6,482.6,590.9,481.8z"/>
		<g opacity="0.2">
			<defs>
				<path id="SVGID_61_" opacity="0.2" d="M590.8,481.4c7.7,0.8,13.1,9.5,13.1,9.5s-7.1,7.5-14.8,6.7c-7.7-0.8-13.1-9.5-13.1-9.5
					S583.1,480.6,590.8,481.4z"/>
			</defs>
			<clipPath id="SVGID_62_">
				<use xlink:href="#SVGID_61_"  overflow="visible"/>
			</clipPath>
		</g>
	</g>
	<g opacity="0.2">
		<defs>
			<path id="SVGID_63_" opacity="0.2" d="M262.4,146.1c-16.1,0-29.3-2.3-29.3-5.1s13.2-5.1,29.3-5.1h5.4c16.1,0,22-2.1,22-4.6
				s-5.8-4.6-22-4.6h-27.5c-16.1,0-43.8,0-43.8-5.3c0-5.3,11.6-5.3,11.6-5.3h-30.6c-16.1,0-29.3,3.2-29.3,7.2
				c0,3.9,13.2,7.2,29.3,7.2h13.4c39,0,10.4,2.8,10.4,10.2C201.3,150.7,262.4,146.1,262.4,146.1z"/>
		</defs>
		<use xlink:href="#SVGID_63_"  overflow="visible" fill="#FFFFFF"/>
		<clipPath id="SVGID_64_">
			<use xlink:href="#SVGID_63_"  overflow="visible"/>
		</clipPath>
	</g>
	<g opacity="0.2">
		<defs>
			<path id="SVGID_65_" opacity="0.2" d="M508.6,179.9c0,0,36.3-16.3,95.3-2.9c0,0,17.1,4.1,22.9,0
				C626.7,177,602.8,193.9,508.6,179.9z"/>
		</defs>
		<use xlink:href="#SVGID_65_"  overflow="visible" fill="#FFFFFF"/>
		<clipPath id="SVGID_66_">
			<use xlink:href="#SVGID_65_"  overflow="visible"/>
		</clipPath>
	</g>
	<g opacity="0.2">
		<defs>
			<path id="SVGID_67_" opacity="0.2" d="M306.1,87.6c0,0,12.2-10.2,32.1-1.8c0,0,5.8,2.5,7.7,0C345.9,85.8,337.8,96.4,306.1,87.6z"
				/>
		</defs>
		<use xlink:href="#SVGID_67_"  overflow="visible" fill="#FFFFFF"/>
		<clipPath id="SVGID_68_">
			<use xlink:href="#SVGID_67_"  overflow="visible"/>
		</clipPath>
	</g>
	<g opacity="0.2">
		<defs>
			<path id="SVGID_69_" opacity="0.2" d="M514.1,115.7c0,0-56.1-16.3-147-2.9c0,0-26.4,4.1-35.3,0
				C331.8,112.9,368.8,129.8,514.1,115.7z"/>
		</defs>
		<use xlink:href="#SVGID_69_"  overflow="visible" fill="#FFFFFF"/>
		<clipPath id="SVGID_70_">
			<use xlink:href="#SVGID_69_"  overflow="visible"/>
		</clipPath>
	</g>
	<g>
		<path fill="#D7E7F3" d="M536.1,199.5l-2.2-1.1l0-0.4c0.1-1.1-0.8-2.2-2-2.3l-0.6-0.1c-0.7-0.1-1.4,0.1-1.9,0.6l-8.2-4l1.1-8.5
			c0.5-4-1.4-7.8-4.4-8.2c-3-0.4-5.8,3-6.3,6.8l-1.1,8.5l-9.8,2c-0.3-0.7-1-1.2-1.9-1.4l-0.6-0.1c-1.3-0.2-2.4,0.6-2.6,1.7l-0.1,0.7
			l-7.4,1.5l-0.5,4.2l21.3,2.8l-0.6,4.7c-0.1,1-0.2,2.1-0.2,3.3l-10,3.9l-0.5,3.8l11.5,1.5c0.6,2.1,1.4,3.6,2.5,3.8
			c1.1,0.1,2.3-1.1,3.5-3l11.4,1.5l0.5-3.8l-8.6-6.3c0.3-1.1,0.5-2.3,0.6-3.3l0.6-4.7l10.7,1.4l10.7,1.4l0.5-4.2l0,0L536.1,199.5z"
			/>
		<path fill="#B2D6EC" d="M536.1,199.5l-2.2-1.1l0-0.4c0.1-1.1-0.8-2.2-2-2.3l-0.6-0.1c-0.7-0.1-1.4,0.1-1.9,0.6l-8-4
			c-0.5,3.8-1,7.7-1.5,11.5l10.5,1.4l10.7,1.4l0.5-4.2l0,0L536.1,199.5z"/>
		<path fill="none" d="M536.1,199.5l-2.2-1.1l0-0.4c0.1-1.1-0.8-2.2-2-2.3l-0.6-0.1c-0.7-0.1-1.4,0.1-1.9,0.6l-8.2-4l1.1-8.5
			c0.5-4-1.4-7.8-4.4-8.2c-3-0.4-5.8,3-6.3,6.8l-1.1,8.5l-9.8,2c-0.3-0.7-1-1.2-1.9-1.4l-0.6-0.1c-1.3-0.2-2.4,0.6-2.6,1.7l-0.1,0.7
			l-7.4,1.5l-0.5,4.2l21.3,2.8l-0.6,4.7c-0.1,1-0.2,2.1-0.2,3.3l-10,3.9l-0.5,3.8l11.5,1.5c0.6,2.1,1.4,3.6,2.5,3.8
			c1.1,0.1,2.3-1.1,3.5-3l11.4,1.5l0.5-3.8l-8.6-6.3c0.3-1.1,0.5-2.3,0.6-3.3l0.6-4.7l10.7,1.4l10.7,1.4l0.5-4.2l0,0L536.1,199.5z"
			/>
		<path fill="#B2D6EC" d="M515.3,220.3l11.2,1.4l0.5-3.8l-8.4-6.1C518,214.8,516.9,217.7,515.3,220.3z"/>
	</g>
</g>
</svg>
